<svg width="210" height="211" viewBox="0 0 210 211" fill="none" xmlns="http://www.w3.org/2000/svg">
<circle cx="105" cy="105.46" r="105" fill="#0885F7"/>
<g transform="translate(10, 10)">
<g clip-path="url(#clip0_270_1633)">
<path d="M189.235 95.383C189.235 82.9578 186.787 70.6542 182.032 59.1747C177.277 47.6953 170.308 37.2648 161.522 28.4788C152.736 19.6928 142.305 12.7233 130.826 7.9684C119.346 3.21345 107.043 0.766113 94.6173 0.766113V5.49696C106.421 5.49696 118.11 7.82193 129.015 12.3391C139.921 16.8563 149.83 23.4773 158.177 31.824C166.523 40.1707 173.144 50.0797 177.662 60.9851C182.179 71.8906 184.504 83.579 184.504 95.383H189.235Z" fill="#8AEBC8"/>
<path d="M94.6173 0.766124C82.192 0.766125 69.8883 3.21347 58.4088 7.96841C46.9293 12.7234 36.4988 19.6928 27.7128 28.4788C18.9267 37.2648 11.9573 47.6953 7.20231 59.1747C2.44734 70.6542 -5.22211e-06 82.9578 -4.13585e-06 95.3831L4.73086 95.3831C4.73086 83.5791 7.05584 71.8906 11.5731 60.9852C16.0903 50.0797 22.7113 40.1707 31.058 31.824C39.4047 23.4773 49.3137 16.8564 60.2193 12.3392C71.1248 7.82194 82.8133 5.49698 94.6173 5.49697L94.6173 0.766124Z" fill="#FEE440"/>
<path d="M-6.98708e-06 95.383C-8.07334e-06 107.808 2.44733 120.112 7.20231 131.591C11.9573 143.071 18.9267 153.501 27.7128 162.287C36.4988 171.073 46.9293 178.043 58.4088 182.798C69.8883 187.553 82.192 190 94.6173 190L94.6173 185.269C82.8132 185.269 71.1248 182.944 60.2193 178.427C49.3137 173.91 39.4047 167.289 31.058 158.942C22.7113 150.595 16.0903 140.686 11.573 129.781C7.05584 118.875 4.73086 107.187 4.73086 95.383L-6.98708e-06 95.383Z" fill="#F6A7A0"/>
<path d="M94.6173 190C107.043 190 119.346 187.553 130.826 182.798C142.305 178.043 152.736 171.073 161.522 162.287C170.308 153.501 177.277 143.071 182.032 131.591C186.787 120.112 189.235 107.808 189.235 95.383L184.504 95.383C184.504 107.187 182.179 118.875 177.662 129.781C173.144 140.686 166.523 150.595 158.177 158.942C149.83 167.289 139.921 173.91 129.015 178.427C118.11 182.944 106.421 185.269 94.6173 185.269L94.6173 190Z" fill="#8CC7FB"/>
<path d="M94.5 177C139.511 177 176 140.511 176 95.5C176 50.4888 139.511 14 94.5 14C49.4888 14 13 50.4888 13 95.5C13 140.511 49.4888 177 94.5 177Z" stroke="#FDFDFD"/>
<mask id="mask0_270_1633" style="mask-type:luminance" maskUnits="userSpaceOnUse" x="49" y="58" width="93" height="74">
<path d="M141.929 58H49V132H141.929V58Z" fill="white"/>
</mask>
<g mask="url(#mask0_270_1633)">
<path d="M106.825 98.6581C101.924 98.6581 97.655 96.3939 95.4601 93.0701C93.2742 96.3904 88.9977 98.6581 84.0969 98.6581C76.9671 98.6581 71.1686 93.8698 71.1686 87.9876C71.1674 87.8933 71.1767 87.7992 71.1964 87.707L75.7464 59.4709C75.8119 59.0603 76.0215 58.6866 76.3377 58.4167C76.6539 58.1468 77.056 57.9985 77.4717 57.9983H113.454C113.869 57.9987 114.271 58.1471 114.587 58.417C114.903 58.6868 115.113 59.0605 115.178 59.4709L119.735 87.7034C119.749 87.7963 119.756 87.8901 119.756 87.984C119.756 93.8662 113.959 98.6545 106.828 98.6545M97.4031 87.984C97.4031 91.9421 101.631 95.1562 106.826 95.1562C111.965 95.1562 116.157 92.0077 116.249 88.1172L111.958 61.4967H78.965L74.6741 88.1172C74.7641 92.0086 78.9578 95.1562 84.0969 95.1562C89.2919 95.1562 93.5198 91.9385 93.5198 87.984C93.523 87.7391 93.577 87.4974 93.6784 87.2744C93.7797 87.0514 93.9263 86.8518 94.1087 86.6883C94.2912 86.5248 94.5055 86.4009 94.7383 86.3245C94.9711 86.2481 95.2172 86.2207 95.461 86.2443C95.7043 86.2235 95.9493 86.2526 96.1808 86.33C96.4124 86.4074 96.6257 86.5313 96.8077 86.6942C96.9896 86.8571 97.1362 87.0554 97.2387 87.2771C97.3411 87.4988 97.397 87.7399 97.4031 87.984Z" fill="#171717"/>
<path d="M129.611 97.2188C126.978 97.2126 124.387 96.5576 122.067 95.3118C118.408 93.349 116.22 90.5091 116.22 87.7187C116.215 87.4856 116.256 87.2539 116.342 87.037C116.427 86.8202 116.555 86.6226 116.718 86.4559C116.881 86.2892 117.076 86.1568 117.29 86.0664C117.505 85.9759 117.736 85.9293 117.969 85.9293C118.202 85.9293 118.433 85.9759 118.648 86.0664C118.863 86.1568 119.057 86.2892 119.22 86.4559C119.383 86.6226 119.511 86.8202 119.597 87.037C119.682 87.2539 119.724 87.4856 119.718 87.7187C119.718 89.1283 121.331 90.9436 123.729 92.2263C128.454 94.764 134.406 93.9301 137.575 90.3058C137.965 89.8628 138.232 89.326 138.352 88.7483C138.471 88.1705 138.438 87.5717 138.255 87.0107L125.72 61.5066H113.451C112.986 61.5066 112.54 61.3217 112.211 60.9928C111.882 60.6638 111.697 60.2176 111.697 59.7524C111.697 59.2872 111.882 58.841 112.211 58.5121C112.54 58.1831 112.986 57.9983 113.451 57.9983H126.814C127.141 57.9997 127.461 58.0923 127.739 58.2656C128.016 58.439 128.24 58.6863 128.385 58.9797L141.446 85.5723C141.481 85.6344 141.51 85.7002 141.531 85.7684C141.936 86.891 142.04 88.1004 141.83 89.2756C141.621 90.4507 141.107 91.5501 140.339 92.4638L140.213 92.6113C138.876 94.0905 137.239 95.2669 135.41 96.0615C133.582 96.8562 131.604 97.2508 129.611 97.2188Z" fill="#171717"/>
<path d="M61.3176 97.2188C59.3244 97.2505 57.3475 96.8558 55.5193 96.0612C53.6911 95.2665 52.0539 94.0903 50.7173 92.6113L50.577 92.4431C49.8129 91.5299 49.302 90.4321 49.0954 89.2595C48.8887 88.0869 48.9936 86.8806 49.3994 85.7612L49.484 85.5723L62.5446 58.9797C62.689 58.6868 62.9121 58.4399 63.1888 58.2666C63.4656 58.0932 63.7851 58.0004 64.1116 57.9983H77.4781C77.9433 57.9983 78.3895 58.1831 78.7185 58.5121C79.0474 58.841 79.2322 59.2872 79.2322 59.7524C79.2322 60.2176 79.0474 60.6638 78.7185 60.9928C78.3895 61.3217 77.9433 61.5066 77.4781 61.5066H65.2091L52.681 87.0098C52.4974 87.5473 52.4544 88.1229 52.5561 88.6817C52.6579 89.2405 52.9009 89.764 53.2621 90.2023C56.5221 93.9391 62.4816 94.7595 67.2052 92.2281C69.6025 90.9453 71.2082 89.1292 71.2082 87.7204C71.2082 87.2552 71.393 86.8091 71.722 86.4801C72.051 86.1511 72.4971 85.9663 72.9623 85.9663C73.4276 85.9663 73.8737 86.1511 74.2027 86.4801C74.5317 86.8091 74.7165 87.2552 74.7165 87.7204C74.7165 90.5091 72.5225 93.3499 68.8622 95.3136C66.5425 96.5594 63.9516 97.2144 61.3185 97.2206" fill="#171717"/>
<path d="M95.6571 89.7364C95.1924 89.7362 94.7469 89.5515 94.4183 89.2229C94.0897 88.8944 93.905 88.4488 93.9048 87.9841V59.7507C93.9048 59.5204 93.9502 59.2923 94.0383 59.0794C94.1265 58.8666 94.2557 58.6732 94.4186 58.5104C94.5814 58.3475 94.7748 58.2183 94.9876 58.1301C95.2005 58.042 95.4286 57.9966 95.6589 57.9966C95.8893 57.9966 96.1174 58.042 96.3302 58.1301C96.543 58.2183 96.7364 58.3475 96.8993 58.5104C97.0622 58.6732 97.1914 58.8666 97.2795 59.0794C97.3677 59.2923 97.413 59.5204 97.413 59.7507V87.9841C97.4128 88.4488 97.2281 88.8944 96.8995 89.2229C96.571 89.5515 96.1254 89.7362 95.6607 89.7364" fill="#171717"/>
<path d="M95.2729 89.7364C95.0427 89.7366 94.8147 89.6913 94.6019 89.6033C94.3892 89.5153 94.1958 89.3863 94.0329 89.2236C93.8701 89.0608 93.7408 88.8676 93.6526 88.655C93.5644 88.4423 93.5189 88.2143 93.5188 87.9841V59.7507C93.5188 59.2855 93.7036 58.8393 94.0326 58.5104C94.3615 58.1814 94.8077 57.9966 95.2729 57.9966C95.7382 57.9966 96.1843 58.1814 96.5133 58.5104C96.8422 58.8393 97.0271 59.2855 97.0271 59.7507V87.9841C97.0269 88.2143 96.9815 88.4423 96.8933 88.655C96.805 88.8676 96.6758 89.0608 96.5129 89.2236C96.35 89.3863 96.1567 89.5153 95.9439 89.6033C95.7312 89.6913 95.5032 89.7366 95.2729 89.7364Z" fill="#171717"/>
<path d="M136.328 131.998H54.6042C54.3738 131.998 54.1457 131.953 53.9329 131.865C53.72 131.777 53.5266 131.648 53.3636 131.486C53.2006 131.323 53.0713 131.13 52.983 130.917C52.8947 130.704 52.8492 130.476 52.8491 130.246V93.9426C52.8491 93.4774 53.0339 93.0312 53.3629 92.7022C53.6919 92.3733 54.138 92.1885 54.6033 92.1885C55.0685 92.1885 55.5146 92.3733 55.8436 92.7022C56.1726 93.0312 56.3574 93.4774 56.3574 93.9426V128.5H134.574V93.9426C134.574 93.4774 134.759 93.0312 135.088 92.7022C135.417 92.3733 135.863 92.1885 136.329 92.1885C136.794 92.1885 137.24 92.3733 137.569 92.7022C137.898 93.0312 138.083 93.4774 138.083 93.9426V130.246C138.083 130.711 137.898 131.156 137.569 131.485C137.241 131.813 136.795 131.998 136.33 131.998" fill="#171717"/>
<path d="M125.116 131.997H99.2111C98.7464 131.997 98.3008 131.813 97.9722 131.484C97.6437 131.155 97.459 130.71 97.4587 130.245V94.5032C97.4587 94.0379 97.6435 93.5918 97.9725 93.2628C98.3015 92.9338 98.7476 92.749 99.2129 92.749C99.6781 92.749 100.124 92.9338 100.453 93.2628C100.782 93.5918 100.967 94.0379 100.967 94.5032V128.502H123.366V94.7136C123.366 94.2484 123.551 93.8023 123.88 93.4733C124.209 93.1443 124.655 92.9595 125.12 92.9595C125.585 92.9595 126.031 93.1443 126.36 93.4733C126.689 93.8023 126.874 94.2484 126.874 94.7136V130.246C126.874 130.711 126.689 131.156 126.361 131.485C126.032 131.813 125.586 131.998 125.122 131.998" fill="#171717"/>
<path d="M67.4668 110.565C67.104 110.565 66.7503 110.452 66.4545 110.242C66.1586 110.032 65.9353 109.735 65.8153 109.393C65.6952 109.051 65.6844 108.679 65.7843 108.331C65.8842 107.982 66.0899 107.673 66.3729 107.446L74.0497 101.318C74.4124 101.029 74.875 100.896 75.3359 100.948C75.7968 100.999 76.2182 101.232 76.5073 101.595C76.7965 101.958 76.9297 102.42 76.8778 102.881C76.8258 103.342 76.5929 103.763 76.2303 104.053L68.5607 110.179C68.2505 110.429 67.8647 110.565 67.4668 110.565Z" fill="#171717"/>
<path d="M69.3073 120.255C68.9442 120.255 68.59 120.143 68.2936 119.933C67.9972 119.723 67.7733 119.426 67.6528 119.084C67.5323 118.741 67.5212 118.37 67.621 118.021C67.7207 117.672 67.9265 117.362 68.2099 117.135L79.1187 108.427C79.2983 108.284 79.5044 108.177 79.7253 108.113C79.9461 108.049 80.1774 108.029 80.406 108.054C80.6345 108.08 80.8558 108.15 81.0572 108.261C81.2587 108.372 81.4363 108.521 81.5799 108.701C81.7236 108.88 81.8304 109.087 81.8944 109.307C81.9584 109.528 81.9783 109.76 81.9529 109.988C81.9275 110.217 81.8574 110.438 81.7464 110.639C81.6355 110.841 81.486 111.018 81.3065 111.162L70.3967 119.869C70.0865 120.118 69.7007 120.254 69.3028 120.255" fill="#171717"/>
<path d="M108.641 112.578H106.013C105.556 112.568 105.121 112.379 104.801 112.052C104.482 111.725 104.303 111.286 104.303 110.829C104.303 110.372 104.482 109.933 104.801 109.606C105.121 109.279 105.556 109.09 106.013 109.08H108.642C108.875 109.074 109.107 109.116 109.324 109.201C109.541 109.287 109.738 109.415 109.905 109.578C110.072 109.741 110.204 109.935 110.294 110.15C110.385 110.365 110.431 110.596 110.431 110.829C110.431 111.062 110.385 111.293 110.294 111.507C110.204 111.722 110.072 111.917 109.905 112.08C109.738 112.243 109.541 112.371 109.324 112.456C109.107 112.542 108.874 112.583 108.641 112.578Z" fill="#171717"/>
</g>
</g>
<defs>
<clipPath id="clip0_270_1633">
<rect width="190" height="190" fill="white"/>
</clipPath>
</defs>
</g>
</svg>
