<svg width="1240" height="863" viewBox="0 0 1240 863" fill="none" xmlns="http://www.w3.org/2000/svg">
<mask id="mask0_690_284" style="mask-type:alpha" maskUnits="userSpaceOnUse" x="0" y="0" width="1240" height="863">
<rect width="1240" height="863" rx="60" fill="#D9D9D9"/>
</mask>
<g mask="url(#mask0_690_284)">
<path fill-rule="evenodd" clip-rule="evenodd" d="M-13.0014 933L1432.33 933L1432.33 0.00012207L-13.0013 5.88927e-05L-13.0014 933Z" fill="url(#paint0_linear_690_284)"/>
<path fill-rule="evenodd" clip-rule="evenodd" d="M35.8476 933L68.1744 933L1006.95 466.507L68.1744 -6.01529e-05L35.8644 -6.15652e-05L974.617 466.507L35.8476 933ZM127.338 933L162.764 933L1101.53 466.507L162.764 -5.60183e-05L127.338 -5.75668e-05L1066.11 466.507L127.338 933ZM218.828 933L257.331 933L1196.12 466.507L1181.66 459.334L257.331 -5.18846e-05L218.828 -5.35676e-05L1157.6 466.507L218.828 933ZM310.319 933L351.921 933L1290.7 466.507L351.921 -4.775e-05L310.319 -4.95684e-05L1249.09 466.507L310.319 933ZM401.806 933L446.51 933L1385.29 466.507L446.532 -4.36144e-05L401.823 -4.55687e-05L1340.6 466.507L401.806 933ZM493.297 933L541.1 933L1444.31 484.173L1444.31 448.825L541.122 -3.94797e-05L493.313 -4.15695e-05L1432.07 466.507L493.297 933ZM584.787 933L635.712 933L1444.31 531.185L1444.31 505.88L584.787 933ZM676.278 933L730.279 933L1444.31 578.18L1444.31 551.348L676.278 933ZM767.765 933L824.868 933L1444.31 625.189L1444.31 596.804L767.765 933ZM859.256 933L919.458 933L1444.31 672.187L1444.31 642.274L859.256 933ZM950.746 933L1014.05 933L1444.31 719.182L1444.31 687.73L950.746 933ZM1042.24 933L1108.64 933L1444.31 766.194L1444.31 733.2L1042.24 933ZM1133.73 933L1203.21 933L1444.31 813.189L1444.31 778.675L1133.73 933ZM1225.21 933L1297.8 933L1444.31 860.201L1444.31 824.126L1225.21 933ZM1316.7 933L1392.39 933L1444.31 907.196L1444.31 869.594L1316.7 933ZM1408.2 933L1444.31 933L1444.31 915.05L1408.2 933ZM1444.31 166.821L1108.64 -1.46729e-05L1042.24 -1.75753e-05L1444.31 199.814L1444.31 166.821ZM1444.31 213.816L1014.05 -1.88075e-05L950.763 -2.15738e-05L1444.31 245.27L1444.31 213.816ZM1444.31 354.837L730.279 -3.12114e-05L676.294 -3.35711e-05L1444.31 381.664L1444.31 354.837ZM1444.31 260.828L919.458 -2.29421e-05L859.272 -2.55729e-05L1444.31 290.738L1444.31 260.828ZM1444.31 72.8136L1297.82 -6.40358e-06L1225.21 -9.57709e-06L1444.31 108.888L1444.31 72.8136ZM1444.31 25.8017L1392.41 -2.26894e-06L1316.7 -5.57791e-06L1444.31 63.4179L1444.31 25.8017ZM1444.31 0L1408.2 -1.57874e-06L1444.31 17.962L1444.31 0ZM1444.31 119.809L1203.23 -1.05382e-05L1133.73 -1.35761e-05L1444.31 154.344L1444.31 119.809ZM1444.31 307.823L824.868 -2.70768e-05L767.782 -2.95721e-05L1444.31 336.194L1444.31 307.823ZM533.999 466.507L-1.00013 200.643L-1.00013 209.011L517.19 466.507L-1.00015 724.003L-1.00015 732.373L533.999 466.507ZM439.426 466.507L-1.00013 247.655L-1.00013 254.467L425.7 466.507L-1.00015 678.552L-1.00015 685.364L439.426 466.507ZM714.533 462.217L-1.00013 106.651L-1.00013 118.085L700.149 466.507L-1.00016 814.929L-1.00016 826.38L723.178 466.507L714.533 462.217ZM628.589 466.507L-1.00013 153.648L-1.00013 163.541L608.658 466.507L-1.00016 769.478L-1.00016 779.368L628.589 466.507ZM340.852 464.519L-1.00013 294.651L-1.00014 299.935L334.212 466.507L-1.00015 633.077L-1.00015 638.366L344.837 466.507L340.852 464.519ZM817.768 466.507L-1.00012 59.6414L-1.00013 72.6151L791.658 466.507L-1.00016 860.401L-1.00016 873.375L817.768 466.507ZM61.0681 466.507L-1.00014 435.655L-1.00014 436.317L59.7408 466.507L-1.00014 496.699L-1.00014 497.345L61.0681 466.507ZM155.658 466.507L-1.00014 388.658L-1.00014 390.861L151.209 466.507L-1.00015 542.155L-1.00015 544.359L155.658 466.507ZM247.42 465.097L-1.00014 341.662L-1.00014 345.391L242.722 466.507L-1.00015 587.626L-1.00015 591.357L250.247 466.507L247.42 465.097ZM912.357 466.507L-1.00012 12.6271L-1.00012 27.1592L883.149 466.507L-1.00016 905.872L-1.00016 920.387L912.357 466.507ZM1444.31 401.83L635.712 -3.53451e-05L584.787 -3.75711e-05L1444.31 427.134L1444.31 401.83Z" fill="url(#paint1_linear_690_284)"/>
</g>
<defs>
<linearGradient id="paint0_linear_690_284" x1="77.3421" y1="1010.75" x2="1153.7" y2="-239.808" gradientUnits="userSpaceOnUse">
<stop stop-color="#FF4200"/>
<stop offset="1" stop-color="#FFD500"/>
</linearGradient>
<linearGradient id="paint1_linear_690_284" x1="-45.5123" y1="854.041" x2="1377.08" y2="-100.221" gradientUnits="userSpaceOnUse">
<stop stop-color="#FF002B"/>
<stop offset="1" stop-color="#EF6DFF"/>
</linearGradient>
</defs>
</svg>
