<svg width="560" height="220" viewBox="0 0 560 220" fill="none" xmlns="http://www.w3.org/2000/svg">
<path d="M122.3 80.5C116.7 82.3 111.1 84 105.4 85.8C106.3 84.2 105.1 81.8 102.9 82.5C89.2 86.9 76 92.6 63.1 98.9C57.5 101.6 52 104.3 46.5 107.2C43.5 95.3 40.2 83.4 36.6 71.7C35.5 66.1 34.5 60.5 33.5 55C33.4 54.5 32.7 54.7 32.8 55.2C33.3 58.5 33.9 61.8 34.5 65.2C33.8 63.2 33.2 61.2 32.5 59.2C31.3 55.8 30.1 52.4 28.9 49.1C41 45.3 52.8 40.5 64.1 34.7C68.7 33.5 73.4 32.3 78 31.3C81.4 31 84.8 30.6 88.2 30.2C96.7 29.2 105.2 27.9 113.3 25.2C115.4 24.5 115.3 20.7 112.7 21C103 22.1 93.4 23.7 83.8 25.6C83.9 25.5 83.8 25.3 83.7 25.3C82.4 25.4 81.2 25.6 79.9 25.8C83.6 23.5 87.3 21.1 90.9 18.6C92.9 17.2 91.7 13.6 89.2 14.5C75.5 19.4 25.5 37.4 24.4 37.8C23.1 34.5 21.7 31.1 20.3 27.8C20.1 27.1 19.9 26.5 19.7 25.8C19.6 25.5 19.4 25.4 19.2 25.4C18 22.7 16.8 20 15.6 17.3C15.2 16.4 13.7 17 14 18L17.1 30C16.3 30 15.5 30.7 15.8 31.7C16.6 34.5 17.4 37.3 18.2 40.1C14.6 41.5 11.1 42.9 7.70003 44.7C6.10003 45.5 7.20003 47.9 8.90003 47.5C9.10003 47.4 9.40004 47.4 9.60004 47.3C6.80004 48.5 4.00003 49.7 1.20003 50.9C-0.199966 51.5 0.400043 53.5 1.60004 53.9C8.40004 56.1 14.6 54.5 20.6 51.6C20.9 51.5 21.2 51.4 21.5 51.3C26.7 69.7 31.9 88.1 36.9 106.6C37.3 108.5 37.6 110.3 38 112.2C34.7 114.2 31.4 116.3 28.2 118.4C27.3 119 27.4 120.1 28.1 120.7C26 122.4 28.1 126.2 30.5 124.5C33.4 122.5 36.4 120.6 39.4 118.8C40 121.4 40.5 124.1 41.1 126.7L19.5 139C17.5 140.1 19.3 143.3 21.3 142.1L42 130.4C45.2 144.5 48.9 158.4 53.1 172.3C54.3 176.2 55.6 180.1 56.9 184L59.5 194.8C60.4 198.9 61.3 203 62.2 207.1C62.4 207.8 62.9 208.1 63.5 208C64.4 211.6 65.3 215.1 66.2 218.7C66.6 220.1 68.5 219.7 68.6 218.4C69.5 218.3 70.3 217.5 70.1 216.4C66.4 198 62.1 179.7 58.2 161.3C56.6 153.5 51.7 129.6 50.8 125.5L123.8 84.4C126 83.2 124.6 79.8 122.3 80.5ZM71.2 25.8C69.7 26.7 68.1 27.5 66.6 28.4C65.3 28.7 64.1 29 62.8 29.3C62 29.4 61.3 29.6 60.5 29.7L71.2 25.8ZM21.8 38.7L19 28.6C19.3 29.3 19.6 30 19.9 30.7C20.2 31.8 20.5 33 20.8 34.1L21.9 38.7H21.8ZM50 121.6C49.4 119 48.8 116.3 48.1 113.7C65.1 104.5 83.4 97.6 101.8 91.5C102.6 91.2 103.4 91 104.2 90.7L50 121.6ZM30.4 63C29.5 59.9 28.7 56.7 27.8 53.6C28.8 56.7 29.8 59.7 30.8 62.8C30.7 62.8 30.5 62.9 30.4 63ZM32.4 63.5C32.3 63 31.9 62.8 31.4 62.7C31.2 62.2 28.3 53.5 27 49.6C27.1 49.6 27.3 49.5 27.4 49.5C30.7 58.4 33.7 67.4 36.5 76.4C36.7 77.5 36.9 78.6 37.1 79.7C35.6 74.3 34 68.9 32.4 63.5ZM42 96.9C41.5 95 40.9 93.1 40.4 91.2C40.1 89.5 39.7 87.8 39.4 86.1C40.2 88.9 41 91.7 41.8 94.6C43 99.1 44.2 103.6 45.3 108.1L45.1 108.2C44.1 104.4 43.1 100.6 42 96.9ZM46.9 114.4C47.4 116.4 47.8 118.4 48.3 120.4C47.8 118.4 47.3 116.5 46.8 114.5C46.8 114.5 46.8 114.5 46.9 114.4ZM54.3 157.6C54.1 156.7 49.3 136.7 47.1 127.6C49.6 137.6 52 147.6 54.3 157.6Z" fill="#E53C3C"/>
<path d="M250.3 173.9C244.7 151.8 235.7 130.9 224.9 110.9C230.5 110.4 236.2 109.9 241.7 108.7C242 108.6 241.9 108.2 241.6 108.2C240.1 108 238.7 107.9 237.2 107.9C239.5 107.5 241.8 107.1 244.1 106.7C246.6 106.2 245.8 102.7 243.5 102.5C235.8 102 228.3 102.5 220.9 103.8C209.9 84.6001 197.4 66.3001 184.4 48.7001C183.8 47.9001 183.2 47.1001 182.6 46.3001L180.3 42.0001C180.3 40.2001 180.3 38.4001 180.2 36.6001C180.2 35.7001 178.8 35.7001 178.7 36.6001C178.7 37.4001 178.6 38.2001 178.6 39.1001L177.1 36.4001C177 36.2001 176.9 36.1001 176.8 35.9001L173.4 29.8001L172.9 19.8001C172.8 17.9001 169.9 17.9001 169.9 19.8001C169.9 21.1001 169.9 22.4001 169.9 23.6001C169.4 23.3001 168.6 23.5001 168.7 24.3001C168.8 25.8001 169 27.2001 169.1 28.7001C166.1 24.7001 163 20.7001 160 16.7001C159 15.3001 156.6 16.6001 157.6 18.1001C161.7 24.6001 165.8 31.1001 169.9 37.7001C170 38.4001 170 39.0001 170.1 39.7001C170.3 63.4001 170.2 87.1001 170.1 110.8C166.2 111.1 162.2 111.4 158.3 111.6C156.7 111.7 156.7 114 158.3 114.1L161 114.2C151.8 115.4 142.6 116.8 133.4 118.2C132.1 118.4 131.5 120.2 132.2 121.2C140.8 133.8 158 127.7 170.1 123.6V163.8C170.1 165.8 173 165.7 173.1 163.8C173.6 158.4 174 153.1 174.3 147.7L174.8 160C174.9 168.4 175 176.8 175.2 185.1C175.2 187.5 178.9 187.5 179 185.1L179.1 177.2C179.1 177 179.2 176.9 179.2 176.7C179.9 157.8 180.7 138.9 180.9 119.9C187.5 117.6 194.2 115.2 200.9 113.1C205.4 112.6 210 112.2 214.5 111.8C214.9 112.5 241.8 164.3 247.4 175.1C248.4 176.5 250.8 175.5 250.3 173.9ZM218 104.3C216.9 104.5 215.7 104.8 214.6 105C213.6 103.3 209.6 96.4001 208.6 94.7001C202.9 84.5001 197.7 74.1001 192.2 63.8001C201.4 76.9001 210.1 90.4001 218 104.3ZM186.2 55.5001L192 67.0001C188.1 60.7001 184.2 54.3001 180.3 48.0001V47.4001C182.3 50.1001 184.3 52.8001 186.2 55.5001ZM180.3 69.4001C180.3 64.3001 180.3 59.2001 180.3 54.1001C190.8 71.2001 201.2 88.5001 211.3 105.9C208.3 106.6 205.3 107.5 202.3 108.4C201.8 108.5 201.3 108.5 200.8 108.6C194.3 109.2 187.8 109.7 181.2 110.1C181.2 97.3001 181 84.5001 180.3 71.7001V69.4001ZM178.6 40.3001V40.8001C178.3 40.4001 178 40.0001 177.6 39.5001C177.5 39.0001 177.5 38.5001 177.4 38.0001L178.6 40.3001ZM176.1 35.3001C175.6 35.1001 175 35.1001 174.5 35.4001L173.8 34.5001L173.6 30.3001L176.1 35.3001ZM158.2 122.8C151.9 124.5 143.6 125.8 138.3 121.4C149 119.6 159.7 118 170.4 116.6V119.1C166.3 120.4 162.3 121.7 158.2 122.8ZM227.1 126.8C224.2 121.7 221.3 116.5 218.3 111.4C219.5 111.3 220.6 111.2 221.8 111.1C226.3 119.5 230.6 128.1 234.4 136.8C236.6 141.8 238.6 146.9 240.4 152C236.1 143.6 231.8 135.1 227.1 126.8ZM241 156.1C241.3 156.1 241.5 155.9 241.7 155.7C242.3 157.3 242.8 158.9 243.3 160.5L241 156.1Z" fill="#E53C3C"/>
<path d="M399 157.8C392 151 384.8 144.4 377.5 138C381.1 140.3 384.7 142.7 388.2 145.2C389.6 146.2 391.4 143.9 390.1 142.8C379.9 133.8 368.4 126 356.7 119C350.8 115.5 344.7 112.2 338.6 109.1C332.6 105.3 326.5 101.6 320.3 98.2C317.4 96.6 314.4 95 311.4 93.5C313.7 88.2 315.7 82.8 317.9 77.5C318.4 76.3 319 75 319.5 73.8C319.7 73.6 319.8 73.5 319.9 73.2C325.4 61.7 329.5 49.5 332.2 37C332.7 35.2 333.2 33.4 333.6 31.6C333.6 31.4 333.5 31.3 333.4 31.3C334 29.2 334.6 27 335.2 24.9C335.7 23.2 333 22.4 332.5 24.2C332.3 24.8 332.2 25.3 332 25.9C331.7 25.9 331.4 25.9 331.1 26.1C331.5 24.7 333.4 18.5 333.9 16.8C334.6 14.5 331 13.5 330.3 15.8C328.9 20.2 327.5 24.7 326.2 29.2C325.9 29.4 325.6 29.6 325.5 30.1C319.9 50.5 312.9 70.7 304.7 90.3C304.5 90.2 304.3 90.1 304 90C300.6 80.3 297 70.6 293.3 61C292.2 58 291 55.1 289.8 52.1C289.6 51.5 281.7 27.2 278.2 15.6C277.8 14.4 275.9 14.9 276.3 16.1C277.5 19.9 278.6 23.7 279.6 27.6C279.1 26.5 278.7 25.4 278.2 24.3C277.5 22.7 275 23.9 275.5 25.5L275.6 25.8C275.4 26 275.2 26.3 275.3 26.7C275.3 26.9 275.4 27 275.4 27.2C274.3 25.4 271 26.7 271.8 28.8L281.1 54.8C283.9 66.7 287 78.5 290.5 90.2C290.1 90.3 289.9 90.9 290.4 91.2C290.6 91.3 290.7 91.4 290.9 91.5C293.8 101.2 297 110.9 300.4 120.4C303.4 132.2 306.7 144 311.1 155.3C315.5 166.7 321 177.7 328.1 187.7C328.2 187.9 328.4 188.1 328.5 188.2L331.7 197.2C332.6 199.7 336.3 198.7 335.7 196.1C328 164.5 318.9 133.2 308.4 102.3C330.4 116.1 390.1 154.3 398.2 159.1C398.8 159.5 399.7 158.4 399 157.8ZM297.7 88.8C297.5 88.6 297.3 88.4 297.1 88.2L296.8 87.3C297 87.4 297.1 87.5 297.3 87.5L297.7 88.8ZM297.7 89.8C297.8 90 298 90.1 298.1 90.3L299.2 93.9H299.1L297.7 89.8ZM308.5 100C310.5 101.7 312.6 103.4 314.7 105L308.1 100.9C308.2 100.6 308.3 100.3 308.5 100ZM354.4 121.3C355.6 122.1 356.7 123 357.8 123.8C344.1 116 330.2 108.6 316 101.7C316.1 101.7 316.1 101.8 316.2 101.8C322.4 104.4 328.5 107.3 334.6 110.3C341.4 113.7 348 117.4 354.4 121.3ZM331 105.6C327.4 103.9 323.7 102.4 320 100.9C316.6 99.5 313.2 98.2 309.8 97.1C310.2 96.2 310.6 95.2 311 94.3C317.8 97.8 324.4 101.6 331 105.6ZM294.4 77.8L297 86.5C296.8 86.4 296.6 86.3 296.4 86.2L295.8 84.5C294.3 78.4 292.7 72.2 290.9 66.2L294.4 77.8ZM289.4 61.2C289.1 60.2 288.8 59.2 288.4 58.2C288.6 58.6 288.7 59 288.8 59.4L289.9 63C289.8 62.5 289.6 61.8 289.4 61.2ZM356.9 131.4L319.5 108C315.9 105.4 312.5 102.7 309.2 99.9C329.1 109.6 348.5 120.2 367.4 131.7C368.3 132.2 369.1 132.8 370 133.3C372.6 135.4 375.2 137.6 377.8 139.8C383 144.3 388 148.9 392.9 153.7C381 146.1 368.8 138.8 356.9 131.4Z" fill="#E53C3C"/>
<path d="M513.2 133.9C508.2 133.4 503.1 133.4 498.1 133.7C498 133.7 497.9 133.6 497.8 133.6C493.6 131.9 488.4 132.9 484.1 133.1C478.3 133.4 472.5 133.7 466.7 134.2C455.6 135.1 444.5 136.5 433.5 138.5C431.1 121.1 428.5 103.7 424.8 86.5C439 83.8 453 80.1 466.7 75.5C468.9 75.3 471.1 75 473.4 74.8C473.6 74.8 473.6 74.5 473.4 74.5C472 74.5 470.6 74.6 469.1 74.6C471.3 73.8 473.5 73.1 475.7 72.3C476.8 71.9 477.2 71.1 477.2 70.3C477.4 70.3 477.5 70.2 477.7 70.2C480.2 69.6 479.1 65.9 476.6 66.4L469.9 67.7C456.3 66.6 442.6 68.3 429.9 73.4C428.4 74 428.9 76.3 430.6 75.9C435 74.8 439.4 73.8 443.9 73.1C436.9 74.7 430 76.6 423.1 78.7C421.1 69.9 418.8 61.1 416.2 52.4C415.7 50.6 415.1 48.9 414.5 47.1L412.9 38.5C412.9 38.4 412.8 38.5 412.8 38.5L413.9 45.2C412.9 42.2 411.9 39.2 410.8 36.2L485.6 31.2C486.6 31.1 487.4 30.3 487.6 29.4C492.7 28.7 498.2 26.3 498.6 20.4C498.7 18.2 497.9 15.9 496 14.6C493.4 12.8 489.9 13.3 486.9 13.5C472.1 14.5 457.4 16.6 442.9 19.5C431.1 21.9 419.4 24.9 408 28.5C407.2 26.5 406.4 24.5 405.5 22.5C405.5 22.4 405.4 22.3 405.4 22.2C404.9 20.9 403 21.9 403.2 23.1L404.7 29.6L404.2 29.8C403.9 29.1 403.7 28.3 403.4 27.6C402.7 25.7 399.9 26.5 400.4 28.4L401 30.8C398.6 31.6 396.3 32.4 393.9 33.3C393.4 33.5 393 33.9 392.8 34.3C391.5 35 391.8 37.5 393.6 37.4C393.9 37.4 394.2 37.4 394.4 37.3C394.4 37.3 394.4 37.3 394.5 37.3L402.5 36.8L407.9 58.7C409.4 66.6 410.8 74.5 412.3 82.4C409.5 83.5 406.7 84.6 403.9 85.8C402.5 86.4 403.5 88.8 405 88.3C407.6 87.4 410.3 86.5 413 85.7C414.8 95.3 416.7 104.8 418.6 114.4C418.8 115.5 420.5 115 420.3 113.9C419.4 108.4 418.5 102.9 417.5 97.4L428.1 139.9C427.9 140.5 428.1 141.2 428.5 141.6L432.5 157.7C432.9 160 433.2 162.3 433.6 164.7C433.9 166.5 437 166.1 436.7 164.3L436.5 162.3C449.5 159.7 462.3 155.8 474.9 151.7C488.2 147.4 501.1 142.1 513.7 136.3C515.2 135.9 514.4 134 513.2 133.9ZM475.1 18.8C478.4 18.4 488.2 17.6 489.8 17.5C491.2 17.4 493.2 17.1 494.2 18.3C495.4 19.7 494.6 22.2 493.5 23.4C491.4 25.7 487.7 25.9 484.8 26.2L481.5 26.5C475.4 25.6 469.3 25 463.2 24.7C467.7 24.3 472.2 24 476.7 23.8C476.8 23.8 476.8 23.6 476.7 23.6C464 23 451.2 23.8 438.5 25C438.1 25 437.8 25.1 437.4 25.1C449.9 22.3 462.4 20.2 475.1 18.8ZM457.6 28.7C452.4 29.2 422.1 31.6 416.8 31.9C430.2 29.4 443.9 28.3 457.6 28.7ZM413.2 57.8L409 38.6C412.7 49.4 415.9 60.4 418.5 71.5L419.9 79.9C419.8 79.9 419.6 80 419.5 80C417.5 72.5 415.4 65.1 413.2 57.8ZM420.5 83.8L420.8 84.8C420.7 84.5 420.6 84.1 420.5 83.8ZM434 141.8C448 139.8 462 138.3 476.1 137.3C468.8 139.1 461.5 141.5 454.4 144.1C447.7 145.5 441.2 147.7 435.3 151.1C434.9 148.1 434.4 144.9 434 141.8ZM473.9 150.9C461.7 155.5 449.2 158.9 436.6 162.2L435.7 155.2C442.3 152.5 448.9 149.8 455.7 147.3C466.8 145.1 478.5 145 489.7 144.2C490.1 144.2 490.4 144.1 490.8 144.1C485.3 146.5 479.6 148.8 473.9 150.9ZM496 139.9C494.3 140.4 492.5 140.5 490.8 140.6C488.6 140.8 476.2 141.7 472.3 141.9C480.3 139.6 488.4 137.9 496.6 137.1C498.5 137.9 497.9 139.2 496 139.9ZM501.4 139.5C501.7 138.5 501.6 137.6 501.2 136.7C503.4 136.6 505.5 136.5 507.7 136.5C505.6 137.5 503.5 138.5 501.4 139.5Z" fill="#E53C3C"/>
<path d="M541 24.9L540.5 19.8C540.4 18.5 538.3 18.4 538.4 19.8C539.4 31.6 540.4 43.5 541.3 55.3C541.2 54.6 534.4 16.7 534.3 16.1C534.3 15.8 534.2 15.6 534 15.4L532.6 7.60002C532.2 5.20002 528.5 5.80001 528.5 8.20002C528.5 10 528.6 11.8 528.6 13.6C528.3 11.3 527.9 9.00002 527.6 6.60002C527.5 6.20002 527.3 5.90002 527 5.80002C527 5.70002 526.8 3.30002 526.8 2.10002C526.6 -0.499976 522.5 -0.499976 522.7 2.10002C522.9 5.50002 523.1 8.90002 523.4 12.3L521.7 3.60002C521.3 1.30002 517.5 1.80002 517.7 4.10002C519.5 33.8 523.2 63.4 529 92.6C530.6 100.9 532.5 109.1 534.4 117.4C535 120 538.8 118.9 538.3 116.3C537.7 113 537.1 109.6 536.5 106.3C537.2 108.8 537.9 111.3 538.6 113.8C539.4 116.4 543.1 115.3 542.6 112.7L541.8 108.7C542.1 108.8 542.5 108.8 542.9 108.7L543.2 111.3C543.4 113.3 546.3 113.4 546.4 111.3C546.5 105.8 546.4 100.3 546.3 94.9C546.7 95.8 547.1 96.7 547.5 97.5C548.3 99.2 551.2 98.4 551.1 96.5C548.9 72.5 545.4 48.6 541 24.9ZM525.2 44.2L525.8 47.2C525.9 48.2 525.9 49.1 526 50.1C525.7 48.1 525.4 46.1 525.2 44.2ZM545.5 76.1L545.9 80.8C545.8 80.5 545.8 80.2 545.7 79.8C545.7 78.6 545.6 77.4 545.5 76.1Z" fill="#E53C3C"/>
<path d="M548.9 127.6C546.3 127.9 544.6 129.4 543.5 131.3C541.8 132.4 540.4 134 539.6 135.8C538 139.4 538.4 143.6 539.3 147.4C540.1 150.7 541.5 154.2 544.7 155.8C551.9 159.4 557.8 149.3 558.9 143.5C560.2 137.5 557 126.7 548.9 127.6ZM539.9 136.6C540.5 134.8 541.7 133.2 543.2 132.1C543 132.7 542.8 133.3 542.6 133.9C542.4 134.1 542.3 134.2 542.1 134.4C540.5 136.3 539.8 138.8 539.8 141.2C539.5 141.9 539.2 142.6 539.2 143.4C539 141 539.2 138.6 539.9 136.6ZM548.7 145.8C547.1 144.6 545.9 142.7 545.4 140.6C545.7 140.6 546 140.6 546.4 140.7C548.4 141.3 549.5 143.9 548.7 145.8ZM542.9 143.7C542.7 143.2 542.7 142.6 542.6 142C542.7 141.9 542.8 141.7 543 141.6C543.3 142.6 543.6 143.5 544.1 144.3C544.6 145.3 545.4 146.4 546.3 147.3C546 147.3 545.6 147.3 545.3 147.3C544.1 146.4 543.2 144.8 542.9 143.7ZM551.6 142.9C550.9 139.7 548 137.7 544.9 137.9C544.9 137.1 544.9 136.2 545.1 135.4C546.2 134.5 547.7 134.3 549.5 135.5C551.7 137 552.5 139.9 552.7 142.4C552.9 144 552.6 146.2 551.3 146.6C551.8 145.5 551.9 144.1 551.6 142.9ZM554.4 148.2C552.3 152.2 547.6 157.1 543.1 152.8C541.6 151.3 540.4 149.2 539.8 146.8C540.7 148.4 542.3 149.5 544 149.7C544.7 150.1 545.4 150.3 546.2 150.4C547.5 150.4 548.5 150 549.4 149.3C550 149.5 550.7 149.6 551.3 149.5C554.6 149.1 555.5 145.7 555.4 142.8C555.2 139.2 554 135.2 550.8 133.1C549.4 132.2 547.9 131.9 546.4 132.1C547.1 131.2 548 130.6 549.2 130.5C549.4 130.5 549.6 130.5 549.8 130.5C550.9 130.8 552 131.4 553 132.5C552.3 131.7 551.5 131.1 550.7 130.8C552.6 131.4 554.1 133.3 555 135C557.3 139 556.6 144.1 554.4 148.2Z" fill="#E53C3C"/>
</svg>
