<svg width="210" height="211" viewBox="0 0 210 211" fill="none" xmlns="http://www.w3.org/2000/svg">
<ellipse cx="105" cy="105.461" rx="105" ry="105.461" fill="#08F477"/>
<g transform="translate(10, 10)">
<g clip-path="url(#clip0_270_1609)">
<path d="M189.235 95.383C189.235 82.9578 186.787 70.6542 182.032 59.1747C177.277 47.6953 170.308 37.2648 161.522 28.4788C152.736 19.6928 142.305 12.7233 130.826 7.9684C119.346 3.21345 107.043 0.766113 94.6173 0.766113V5.49696C106.421 5.49696 118.11 7.82193 129.015 12.3391C139.921 16.8563 149.83 23.4773 158.177 31.824C166.523 40.1707 173.144 50.0797 177.662 60.9851C182.179 71.8906 184.504 83.579 184.504 95.383H189.235Z" fill="#8AEBC8"/>
<path d="M94.6173 0.766124C82.192 0.766125 69.8883 3.21347 58.4088 7.96841C46.9293 12.7234 36.4988 19.6928 27.7128 28.4788C18.9267 37.2648 11.9573 47.6953 7.20231 59.1747C2.44734 70.6542 -5.22211e-06 82.9578 -4.13585e-06 95.3831L4.73086 95.3831C4.73086 83.5791 7.05584 71.8906 11.5731 60.9852C16.0903 50.0797 22.7113 40.1707 31.058 31.824C39.4047 23.4773 49.3137 16.8564 60.2193 12.3392C71.1248 7.82194 82.8133 5.49698 94.6173 5.49697L94.6173 0.766124Z" fill="#FEE440"/>
<path d="M-6.98708e-06 95.383C-8.07334e-06 107.808 2.44733 120.112 7.20231 131.591C11.9573 143.071 18.9267 153.501 27.7128 162.287C36.4988 171.073 46.9293 178.043 58.4088 182.798C69.8883 187.553 82.192 190 94.6173 190L94.6173 185.269C82.8132 185.269 71.1248 182.944 60.2193 178.427C49.3137 173.91 39.4047 167.289 31.058 158.942C22.7113 150.595 16.0903 140.686 11.573 129.781C7.05584 118.875 4.73086 107.187 4.73086 95.383L-6.98708e-06 95.383Z" fill="#F6A7A0"/>
<path d="M94.6173 190C107.043 190 119.346 187.553 130.826 182.798C142.305 178.043 152.736 171.073 161.522 162.287C170.308 153.501 177.277 143.071 182.032 131.591C186.787 120.112 189.235 107.808 189.235 95.383L184.504 95.383C184.504 107.187 182.179 118.875 177.662 129.781C173.144 140.686 166.523 150.595 158.177 158.942C149.83 167.289 139.921 173.91 129.015 178.427C118.11 182.944 106.421 185.269 94.6173 185.269L94.6173 190Z" fill="#8CC7FB"/>
<path d="M94.5 177C139.511 177 176 140.511 176 95.5C176 50.4888 139.511 14 94.5 14C49.4888 14 13 50.4888 13 95.5C13 140.511 49.4888 177 94.5 177Z" stroke="#FDFDFD"/>
<g clip-path="url(#clip1_270_1609)">
<mask id="mask0_270_1609" style="mask-type:luminance" maskUnits="userSpaceOnUse" x="49" y="49" width="92" height="92">
<path d="M141 49H49V141H141V49Z" fill="white"/>
</mask>
<g mask="url(#mask0_270_1609)">
<path d="M96.1489 73.5799C90.277 73.5799 85.8575 64.9387 85.8575 59.3396C85.8575 56.5971 86.9419 53.9668 88.8721 52.0275C90.8024 50.0883 93.4203 48.9988 96.15 48.9988C98.8798 48.9988 101.498 50.0883 103.428 52.0275C105.358 53.9668 106.443 56.5971 106.443 59.3396C106.443 64.9387 102.023 73.5799 96.1512 73.5799M96.1512 51.543C94.0935 51.5451 92.1207 52.3672 90.6654 53.8288C89.2102 55.2904 88.3914 57.2723 88.3887 59.3396C88.3887 63.7486 92.0135 71.0369 96.1489 71.0369C100.284 71.0369 103.909 63.7486 103.909 59.3396C103.907 57.2725 103.088 55.2907 101.634 53.8289C100.179 52.367 98.2064 51.5446 96.1489 51.5418" fill="#171717"/>
<path d="M114.717 89.2045H76.9576C76.7915 89.2045 76.627 89.1717 76.4735 89.1078C76.3201 89.0439 76.1806 88.9503 76.0631 88.8323C75.9457 88.7143 75.8525 88.5742 75.7889 88.42C75.7253 88.2658 75.6926 88.1005 75.6926 87.9336V79.5465C75.6926 79.2679 75.7838 78.9969 75.9521 78.7754C76.1205 78.5539 76.3566 78.3941 76.6241 78.3207L91.4005 74.2409L91.3901 70.9758C91.3901 70.6387 91.5234 70.3154 91.7606 70.0771C91.9979 69.8387 92.3196 69.7048 92.6551 69.7048C92.9906 69.7048 93.3124 69.8387 93.5496 70.0771C93.7868 70.3154 93.9201 70.6387 93.9201 70.9758L93.9305 75.2126C93.9315 75.4921 93.8407 75.7641 93.6724 75.9865C93.504 76.209 93.2673 76.3695 92.999 76.4431L78.2238 80.5182V86.6615H113.452V80.457L99.2216 76.2814C98.9604 76.2048 98.7307 76.0457 98.5666 75.8275C98.4025 75.6094 98.3128 75.3439 98.3108 75.0705L98.2855 71.0832C98.2842 70.9163 98.3155 70.7508 98.3778 70.5961C98.4402 70.4413 98.5322 70.3005 98.6487 70.1815C98.7652 70.0625 98.9039 69.9677 99.0569 69.9026C99.2098 69.8375 99.3741 69.8032 99.5402 69.8019H99.5505C99.8844 69.8019 100.205 69.9345 100.442 70.1709C100.679 70.4072 100.813 70.7281 100.816 71.0636L100.841 74.1046L115.071 78.2848C115.334 78.3604 115.565 78.52 115.729 78.7393C115.893 78.9586 115.982 79.2258 115.982 79.5003V87.9348C115.982 88.2718 115.848 88.5951 115.611 88.8335C115.374 89.0718 115.052 89.2045 114.717 89.2045Z" fill="#171717"/>
<path d="M121.166 125.376C115.294 125.376 110.875 116.734 110.875 111.135C110.875 108.393 111.959 105.762 113.889 103.823C115.819 101.884 118.437 100.794 121.167 100.794C123.897 100.794 126.515 101.884 128.445 103.823C130.375 105.762 131.46 108.393 131.46 111.135C131.46 116.734 127.04 125.376 121.168 125.376M121.168 103.339C119.111 103.341 117.139 104.164 115.684 105.625C114.229 107.087 113.411 109.068 113.408 111.135C113.408 115.544 117.033 122.833 121.168 122.833C125.304 122.833 128.928 115.544 128.928 111.135C128.926 109.068 128.107 107.087 126.653 105.625C125.198 104.164 123.226 103.341 121.168 103.339Z" fill="#171717"/>
<path d="M139.734 141H101.97C101.635 141 101.313 140.866 101.076 140.628C100.838 140.389 100.705 140.066 100.705 139.729V131.342C100.705 131.064 100.795 130.793 100.963 130.572C101.13 130.351 101.365 130.19 101.632 130.116L116.414 126.038L116.404 122.772C116.404 122.435 116.537 122.112 116.774 121.874C117.012 121.635 117.333 121.501 117.669 121.501C118.004 121.501 118.326 121.635 118.563 121.874C118.801 122.112 118.934 122.435 118.934 122.772L118.944 127.009C118.945 127.289 118.854 127.561 118.686 127.783C118.518 128.006 118.281 128.166 118.013 128.24L103.236 132.314V138.457H138.469V132.252L124.239 128.077C123.978 128 123.748 127.841 123.584 127.623C123.42 127.405 123.33 127.139 123.328 126.866L123.303 122.874C123.303 122.539 123.435 122.217 123.67 121.979C123.905 121.741 124.225 121.606 124.558 121.603H124.569C124.903 121.603 125.223 121.736 125.46 121.972C125.697 122.208 125.831 122.529 125.834 122.865L125.859 125.906L140.088 130.076C140.351 130.153 140.582 130.313 140.746 130.533C140.91 130.753 140.999 131.021 140.999 131.296V139.73C140.999 140.067 140.866 140.391 140.628 140.629C140.391 140.867 140.069 141 139.734 141Z" fill="#171717"/>
<path d="M69.4608 125.376C63.5889 125.376 59.1694 116.734 59.1694 111.135C59.1694 108.393 60.2538 105.762 62.184 103.823C64.1143 101.884 66.7322 100.794 69.4619 100.794C72.1917 100.794 74.8096 101.884 76.7398 103.823C78.67 105.762 79.7544 108.393 79.7544 111.135C79.7544 116.734 75.335 125.376 69.4631 125.376M69.4631 103.339C67.4054 103.341 65.4326 104.163 63.9773 105.624C62.5221 107.086 61.7033 109.068 61.7006 111.135C61.7006 115.544 65.3254 122.833 69.4608 122.833C73.5962 122.833 77.221 115.544 77.221 111.135C77.2182 109.068 76.3998 107.087 74.945 105.625C73.4903 104.164 71.5181 103.341 69.4608 103.339" fill="#171717"/>
<path d="M88.0241 141H50.265C49.9295 141 49.6077 140.866 49.3705 140.628C49.1333 140.389 49 140.066 49 139.729V131.342C49 131.063 49.0912 130.792 49.2595 130.571C49.4278 130.349 49.6639 130.19 49.9315 130.116L64.7079 126.038L64.6975 122.772C64.6975 122.435 64.8308 122.112 65.068 121.874C65.3052 121.635 65.627 121.501 65.9625 121.501C66.298 121.501 66.6198 121.635 66.857 121.874C67.0942 122.112 67.2275 122.435 67.2275 122.772L67.2379 127.009C67.2388 127.289 67.1481 127.561 66.9797 127.783C66.8113 128.006 66.5747 128.166 66.3063 128.24L51.53 132.314V138.457H86.7591V132.252L72.529 128.077C72.2677 128 72.038 127.841 71.8739 127.623C71.7099 127.405 71.6202 127.139 71.6182 126.866L71.5929 122.874C71.5929 122.539 71.7249 122.217 71.9602 121.979C72.1954 121.741 72.5148 121.606 72.8487 121.603H72.859C73.193 121.603 73.5133 121.736 73.7503 121.972C73.9873 122.208 74.1216 122.529 74.1241 122.865L74.1493 125.906L88.3783 130.076C88.6411 130.153 88.8719 130.313 89.0361 130.533C89.2003 130.753 89.2891 131.021 89.2891 131.296V139.73C89.2891 140.067 89.1558 140.391 88.9186 140.629C88.6814 140.867 88.3596 141 88.0241 141Z" fill="#171717"/>
<path d="M84.0554 112.742C83.7801 112.743 83.512 112.654 83.2918 112.488C83.0716 112.322 82.9113 112.089 82.8352 111.823C82.7591 111.557 82.7714 111.273 82.8702 111.015C82.969 110.757 83.1489 110.538 83.3827 110.392L95.1621 102.951C95.3027 102.852 95.4618 102.783 95.6299 102.748C95.798 102.712 95.9715 102.712 96.1398 102.746C96.3081 102.78 96.4678 102.848 96.609 102.947C96.7502 103.045 96.87 103.171 96.9611 103.317C97.0523 103.463 97.1128 103.627 97.1391 103.797C97.1654 103.968 97.1568 104.142 97.1139 104.309C97.0711 104.476 96.9948 104.632 96.8898 104.769C96.7848 104.905 96.6532 105.019 96.503 105.103L84.7282 112.549C84.5255 112.674 84.293 112.741 84.0554 112.742Z" fill="#171717"/>
<path d="M107.924 113.098C107.681 113.097 107.444 113.027 107.241 112.895L95.1518 105.097C94.8805 104.91 94.6924 104.624 94.6276 104.299C94.5629 103.975 94.6264 103.638 94.8049 103.36C94.9833 103.082 95.2625 102.885 95.5833 102.811C95.904 102.736 96.241 102.791 96.5226 102.962L108.611 110.758C108.841 110.907 109.017 111.126 109.112 111.383C109.208 111.64 109.218 111.922 109.141 112.185C109.064 112.448 108.904 112.679 108.686 112.844C108.467 113.009 108.201 113.098 107.928 113.098" fill="#171717"/>
<path d="M95.8326 105.301C95.4971 105.301 95.1754 105.168 94.9381 104.929C94.7009 104.691 94.5676 104.368 94.5676 104.031V92.8093C94.5676 92.4722 94.7009 92.1489 94.9381 91.9106C95.1754 91.6722 95.4971 91.5383 95.8326 91.5383C96.1681 91.5383 96.4899 91.6722 96.7271 91.9106C96.9644 92.1489 97.0976 92.4722 97.0976 92.8093V104.029C97.0976 104.366 96.9644 104.69 96.7271 104.928C96.4899 105.166 96.1681 105.301 95.8326 105.301Z" fill="#171717"/>
</g>
</g>
</g>
<defs>
<clipPath id="clip0_270_1609">
<rect width="190" height="190" fill="white"/>
</clipPath>
<clipPath id="clip1_270_1609">
<rect width="92" height="92" fill="white" transform="translate(49 49)"/>
</clipPath>
</defs>
</g>
</svg>
