<svg width="25" height="27" viewBox="0 0 25 27" fill="none" xmlns="http://www.w3.org/2000/svg">
<path d="M13.106 0.022C14.563 0 16.009 0.011 17.457 0C17.5017 1.73519 18.1962 3.39037 19.403 4.638C20.7076 5.80997 22.3673 6.51095 24.117 6.629V11.111C22.5029 11.0718 20.9137 10.7047 19.446 10.032C18.8201 9.73394 18.2177 9.38896 17.644 9C17.633 12.248 17.655 15.5 17.622 18.732C17.5372 20.3034 17.018 21.8203 16.122 23.114C15.3829 24.1827 14.403 25.0626 13.2612 25.6828C12.1194 26.3029 10.8477 26.6459 9.54897 26.684C7.95655 26.7563 6.37814 26.3577 5.01097 25.538C3.88559 24.8696 2.93227 23.9471 2.22728 22.8443C1.52229 21.7415 1.08519 20.489 0.95097 19.187C0.92897 18.631 0.91797 18.075 0.93997 17.53C1.05343 16.3894 1.39986 15.2843 1.95781 14.283C2.51576 13.2818 3.27335 12.4058 4.18364 11.7092C5.09393 11.0127 6.13754 10.5104 7.24983 10.2336C8.36211 9.95683 9.51939 9.91134 10.65 10.1C10.672 11.746 10.606 13.392 10.606 15.038C10.131 14.8712 9.62764 14.8 9.125 14.8285C8.62235 14.8571 8.13033 14.9848 7.67727 15.2044C7.22422 15.4239 6.81909 15.731 6.48522 16.1078C6.15135 16.4846 5.89535 16.9238 5.73197 17.4C5.5576 17.98 5.5045 18.5896 5.57597 19.191C5.72062 20.1078 6.1971 20.9396 6.91485 21.5281C7.6326 22.1166 8.54157 22.4208 9.46897 22.383C10.091 22.3646 10.6987 22.1912 11.2367 21.8784C11.7748 21.5657 12.2262 21.1235 12.55 20.592C12.7979 20.2432 12.9547 19.8379 13.006 19.413C13.117 17.422 13.073 15.442 13.084 13.451C13.095 8.969 13.073 4.497 13.106 0.026V0.022Z" fill="#777777"/>
</svg>
