<svg width="24" height="25" viewBox="0 0 24 25" fill="none" xmlns="http://www.w3.org/2000/svg">
<path d="M12.272 5.40197C11.0437 5.40093 9.83753 5.7292 8.77914 6.35259C7.72074 6.97599 6.84882 7.87171 6.25414 8.9465C5.65946 10.0213 5.36378 11.2358 5.39788 12.4637C5.43198 13.6916 5.79461 14.8878 6.44802 15.928L6.61002 16.189L5.91602 18.718L8.51602 18.035L8.76602 18.186C9.82531 18.8143 11.0344 19.1456 12.266 19.145H12.271C14.101 19.1456 15.8573 18.4243 17.1586 17.1376C18.4599 15.8509 19.201 14.1028 19.221 12.273C19.2088 11.3661 19.018 10.4705 18.6593 9.6374C18.3007 8.80434 17.7814 8.05014 17.131 7.41797C16.4949 6.77693 15.7379 6.26862 14.9038 5.92254C14.0696 5.57646 13.1751 5.39952 12.272 5.40197ZM16.313 15.225C16.1619 15.4762 15.9601 15.6931 15.7204 15.8618C15.4807 16.0306 15.2084 16.1474 14.921 16.205C14.0617 16.3031 13.1936 16.1222 12.445 15.689C11.0198 14.9705 9.80401 13.8965 8.91502 12.571C8.43021 11.9563 8.13641 11.213 8.07002 10.433C8.06371 10.1108 8.12476 9.79084 8.24926 9.49362C8.37376 9.1964 8.55897 8.92846 8.79302 8.70697C8.86177 8.62716 8.94653 8.56268 9.04179 8.51772C9.13706 8.47276 9.2407 8.44831 9.34602 8.44597C9.48202 8.44597 9.62202 8.44597 9.74602 8.45097C9.87002 8.45597 10.046 8.40397 10.21 8.80597C10.374 9.20797 10.794 10.235 10.846 10.339C10.8796 10.3925 10.8987 10.4538 10.9015 10.5169C10.9043 10.58 10.8907 10.6427 10.862 10.699C10.462 11.491 10.043 11.46 10.262 11.825C10.8921 12.9394 11.8833 13.8057 13.072 14.281C13.281 14.381 13.4 14.37 13.52 14.229C13.64 14.088 14.036 13.629 14.172 13.421C14.308 13.213 14.448 13.249 14.636 13.321C14.824 13.393 15.836 13.889 16.049 13.994C16.262 14.099 16.393 14.15 16.449 14.234C16.5016 14.5724 16.4582 14.9188 16.324 15.234L16.313 15.225ZM21.448 0.667969H3.09302C2.76446 0.667969 2.43913 0.732732 2.13562 0.858557C1.83211 0.984381 1.55638 1.1688 1.32419 1.40126C1.09201 1.63373 0.907919 1.90968 0.782459 2.21334C0.656999 2.517 0.592625 2.84241 0.593019 3.17097V21.518C0.593019 21.8463 0.657684 22.1714 0.783321 22.4747C0.908957 22.778 1.09311 23.0536 1.32525 23.2857C1.5574 23.5179 1.833 23.702 2.13631 23.8277C2.43962 23.9533 2.76471 24.018 3.09302 24.018H21.448C21.7763 24.018 22.1014 23.9533 22.4047 23.8277C22.708 23.702 22.9836 23.5179 23.2158 23.2857C23.4479 23.0536 23.6321 22.778 23.7577 22.4747C23.8834 22.1714 23.948 21.8463 23.948 21.518V3.17097C23.9484 2.84241 23.884 2.517 23.7586 2.21334C23.6331 1.90968 23.449 1.63373 23.2168 1.40126C22.9847 1.1688 22.7089 0.984381 22.4054 0.858557C22.1019 0.732732 21.7766 0.667969 21.448 0.667969ZM12.266 20.543C10.8853 20.5432 9.52657 20.1973 8.31402 19.537L3.93002 20.689L5.10302 16.403C4.48657 15.3013 4.1301 14.0732 4.06087 12.8127C3.99163 11.5521 4.21145 10.2924 4.70353 9.12981C5.19561 7.96721 5.94694 6.93248 6.9001 6.10467C7.85326 5.27686 8.98303 4.67788 10.2031 4.35349C11.4232 4.02911 12.7012 3.9879 13.9397 4.23302C15.1781 4.47814 16.3441 5.00311 17.3486 5.7678C18.3531 6.53249 19.1695 7.51668 19.7355 8.64517C20.3014 9.77365 20.6019 11.0166 20.614 12.279C20.5927 14.4787 19.7036 16.5809 18.1403 18.1285C16.577 19.6761 14.4658 20.5439 12.266 20.543Z" fill="#777777"/>
</svg>
