<svg width="24" height="24" viewBox="0 0 24 24" fill="none" xmlns="http://www.w3.org/2000/svg">
<path d="M19.396 0.910156H4.14598C3.6453 0.910156 3.14952 1.00879 2.68696 1.20042C2.22441 1.39206 1.80413 1.67294 1.45014 2.02702C1.09615 2.3811 0.815381 2.80145 0.623869 3.26406C0.432356 3.72667 0.333853 4.22247 0.333985 4.72316V19.9722C0.334515 20.9828 0.736369 21.9519 1.4512 22.6664C2.16603 23.3808 3.13533 23.7822 4.14598 23.7822H11.771V13.7772H8.91198V10.9182H11.771V8.77316C11.771 7.82527 12.1475 6.91621 12.8178 6.24596C13.488 5.5757 14.3971 5.19916 15.345 5.19916H18.919V8.05816H15.345C15.1554 8.05816 14.9735 8.13349 14.8394 8.26757C14.7053 8.40166 14.63 8.58353 14.63 8.77316V10.9172H18.563L17.848 13.7762H14.63V23.7822H19.396C19.8967 23.7822 20.3924 23.6835 20.855 23.4919C21.3176 23.3003 21.7378 23.0194 22.0918 22.6653C22.4458 22.3112 22.7266 21.8909 22.9181 21.4283C23.1096 20.9656 23.2081 20.4698 23.208 19.9692V4.72316C23.2081 4.22247 23.1096 3.72667 22.9181 3.26406C22.7266 2.80145 22.4458 2.3811 22.0918 2.02702C21.7378 1.67294 21.3176 1.39206 20.855 1.20042C20.3924 1.00879 19.8967 0.910156 19.396 0.910156Z" fill="#777777"/>
</svg>
