<svg width="30" height="21" viewBox="0 0 30 21" fill="none" xmlns="http://www.w3.org/2000/svg">
<path d="M28.805 3.46991C28.6439 2.86414 28.3266 2.3113 27.8847 1.86676C27.4427 1.42222 26.8918 1.10157 26.287 0.936914C24.066 0.336914 15.163 0.336914 15.163 0.336914C15.163 0.336914 6.26299 0.336914 4.03899 0.936914C3.43419 1.10157 2.88325 1.42222 2.44134 1.86676C1.99943 2.3113 1.68205 2.86414 1.52099 3.46991C1.11043 5.74666 0.911246 8.05649 0.925995 10.3699C0.911246 12.6833 1.11043 14.9932 1.52099 17.2699C1.68308 17.8707 2.00136 18.4178 2.44345 18.8557C2.88555 19.2936 3.43571 19.6066 4.03799 19.7629C6.259 20.3629 15.162 20.3629 15.162 20.3629C15.162 20.3629 24.062 20.3629 26.286 19.7629C26.8883 19.6066 27.4384 19.2936 27.8805 18.8557C28.3226 18.4178 28.6409 17.8707 28.803 17.2699C29.2136 14.9932 29.4127 12.6833 29.398 10.3699C29.4127 8.05649 29.2136 5.74666 28.803 3.46991H28.805ZM12.251 14.6009V6.13691L19.693 10.3709L12.251 14.6049V14.6009Z" fill="#777777"/>
</svg>
