<svg width="24" height="25" viewBox="0 0 24 25" fill="none" xmlns="http://www.w3.org/2000/svg">
<path d="M21.114 0.667969H2.75897C2.43042 0.667969 2.10508 0.732732 1.80157 0.858557C1.49806 0.984381 1.22233 1.1688 0.990146 1.40126C0.75796 1.63373 0.573874 1.90968 0.448413 2.21334C0.322953 2.517 0.25858 2.84241 0.258974 3.17097V21.518C0.258974 21.8463 0.323638 22.1714 0.449275 22.4747C0.574912 22.778 0.759061 23.0536 0.991207 23.2857C1.22335 23.5179 1.49895 23.702 1.80227 23.8277C2.10558 23.9533 2.43067 24.018 2.75897 24.018H21.114C21.4423 24.018 21.7674 23.9533 22.0707 23.8277C22.374 23.702 22.6496 23.5179 22.8817 23.2857C23.1139 23.0536 23.298 22.778 23.4237 22.4747C23.5493 22.1714 23.614 21.8463 23.614 21.518V3.17097C23.6144 2.84241 23.55 2.517 23.4245 2.21334C23.2991 1.90968 23.115 1.63373 22.8828 1.40126C22.6506 1.1688 22.3749 0.984381 22.0714 0.858557C21.7679 0.732732 21.4425 0.667969 21.114 0.667969ZM18.565 8.94697C18.575 9.09297 18.575 9.24697 18.575 9.38997C18.5837 10.67 18.3381 11.939 17.8523 13.1233C17.3664 14.3076 16.6501 15.3835 15.7449 16.2886C14.8397 17.1937 13.7637 17.9099 12.5794 18.3956C11.395 18.8813 10.126 19.1269 8.84597 19.118C6.98503 19.122 5.16233 18.5898 3.59597 17.585C3.86961 17.6147 4.14473 17.6287 4.41997 17.627C5.95655 17.6294 7.44939 17.1156 8.65897 16.168C7.94482 16.1558 7.25236 15.9205 6.67856 15.4952C6.10475 15.0698 5.67832 14.4757 5.45897 13.796C5.97198 13.8842 6.49786 13.8627 7.00197 13.733C6.22823 13.5753 5.53289 13.1547 5.03399 12.5426C4.5351 11.9305 4.26338 11.1646 4.26497 10.375V10.333C4.73771 10.5976 5.26659 10.746 5.80797 10.766C5.34032 10.4529 4.95736 10.0291 4.6932 9.53216C4.42904 9.03525 4.29189 8.48072 4.29397 7.91797C4.29167 7.31233 4.45227 6.71721 4.75897 6.19497C5.61735 7.25222 6.68855 8.11706 7.90297 8.73331C9.11739 9.34957 10.4479 9.70345 11.808 9.77197C11.6378 9.03822 11.7141 8.26884 12.0251 7.58281C12.3361 6.89678 12.8644 6.33231 13.5284 5.97669C14.1924 5.62108 14.955 5.49412 15.6984 5.61546C16.4418 5.7368 17.1245 6.09967 17.641 6.64797C18.4064 6.50153 19.1404 6.22269 19.81 5.82397C19.5552 6.61271 19.022 7.28172 18.31 7.70597C18.99 7.62883 19.6545 7.44948 20.281 7.17397C19.815 7.85939 19.2351 8.4592 18.565 8.94697Z" fill="#777777"/>
</svg>
