<svg width="24" height="25" viewBox="0 0 24 25" fill="none" xmlns="http://www.w3.org/2000/svg">
<path d="M11.687 6.35679C10.5021 6.35679 9.34379 6.70816 8.35857 7.36646C7.37336 8.02475 6.60548 8.96042 6.15203 10.0551C5.69859 11.1498 5.57995 12.3544 5.81111 13.5166C6.04227 14.6787 6.61286 15.7462 7.45072 16.5841C8.28857 17.4219 9.35607 17.9925 10.5182 18.2237C11.6803 18.4548 12.8849 18.3362 13.9797 17.8828C15.0744 17.4293 16.01 16.6614 16.6683 15.6762C17.3266 14.691 17.678 13.5327 17.678 12.3478C17.6793 11.5607 17.5252 10.781 17.2246 10.0536C16.924 9.32612 16.4828 8.66515 15.9262 8.10857C15.3696 7.552 14.7087 7.11075 13.9812 6.81014C13.2538 6.50953 12.4741 6.35547 11.687 6.35679ZM11.687 16.2418C10.9166 16.2418 10.1636 16.0134 9.52305 15.5854C8.88252 15.1574 8.38329 14.5491 8.08848 13.8373C7.79368 13.1256 7.71655 12.3425 7.86684 11.5869C8.01712 10.8314 8.38809 10.1373 8.93281 9.59261C9.47754 9.04788 10.1716 8.67692 10.9271 8.52663C11.6827 8.37634 12.4658 8.45348 13.1775 8.74828C13.8893 9.04308 14.4976 9.54231 14.9256 10.1828C15.3536 10.8234 15.582 11.5764 15.582 12.3468C15.5807 13.3794 15.1699 14.3693 14.4397 15.0995C13.7095 15.8297 12.7196 16.2405 11.687 16.2418ZM19.32 6.11179C19.32 6.38868 19.2379 6.65936 19.0841 6.88959C18.9302 7.11982 18.7116 7.29926 18.4557 7.40522C18.1999 7.51118 17.9184 7.53891 17.6469 7.48489C17.3753 7.43087 17.1258 7.29753 16.93 7.10174C16.7343 6.90595 16.6009 6.65649 16.5469 6.38492C16.4929 6.11334 16.5206 5.83185 16.6266 5.57603C16.7325 5.32022 16.912 5.10157 17.1422 4.94773C17.3724 4.7939 17.6431 4.71179 17.92 4.71179C18.1041 4.711 18.2865 4.74667 18.4567 4.81674C18.6269 4.88682 18.7816 4.98991 18.9117 5.12007C19.0419 5.25023 19.145 5.40488 19.215 5.57509C19.2851 5.74531 19.3208 5.92772 19.32 6.11179ZM23.288 7.52679C23.3277 5.70889 22.6498 3.9485 21.401 2.62679C20.0766 1.3857 18.3197 0.711084 16.505 0.746789C14.576 0.637789 8.79399 0.637789 6.86499 0.746789C5.0501 0.710017 3.29285 1.38478 1.96899 2.62679C0.722258 3.94978 0.0446634 5.7093 0.0819941 7.52679C-0.0270059 9.45579 -0.0270059 15.2378 0.0819941 17.1668C0.0422883 18.9847 0.720217 20.7451 1.96899 22.0668C3.29384 23.3106 5.05211 23.9877 6.86899 23.9538C8.79799 24.0628 14.58 24.0628 16.509 23.9538C18.3269 23.9935 20.0873 23.3156 21.409 22.0668C22.6536 20.7425 23.3309 18.9838 23.296 17.1668C23.405 15.2378 23.405 9.46079 23.296 7.53179L23.288 7.52679ZM20.796 19.2268C20.5977 19.7294 20.2983 20.1859 19.9162 20.568C19.5341 20.9501 19.0776 21.2495 18.575 21.4478C17.037 22.0578 13.387 21.9168 11.688 21.9168C9.98899 21.9168 6.33399 22.0528 4.80099 21.4478C4.29837 21.2495 3.84186 20.9501 3.4598 20.568C3.07773 20.1859 2.77827 19.7294 2.57999 19.2268C1.96899 17.6958 2.10499 14.0468 2.10499 12.3468C2.10499 10.6468 1.96899 6.99279 2.57399 5.45979C2.77339 4.95621 3.07439 4.4991 3.45823 4.11698C3.84207 3.73486 4.30052 3.43592 4.80499 3.23879C6.34299 2.62879 9.99299 2.76979 11.692 2.76979C13.391 2.76979 17.046 2.63379 18.579 3.23879C19.0816 3.43706 19.5381 3.73653 19.9202 4.11859C20.3023 4.50065 20.6017 4.95716 20.8 5.45979C21.41 6.99779 21.269 10.6478 21.269 12.3468C21.269 14.0458 21.405 17.7018 20.796 19.2348V19.2268Z" fill="#777777"/>
</svg>
