<svg id="Group_3" data-name="Group 3" xmlns="http://www.w3.org/2000/svg" xmlns:xlink="http://www.w3.org/1999/xlink" width="295.989" height="123.507" viewBox="0 0 295.989 123.507">
  <defs>
    <clipPath id="clip-path">
      <rect id="Rectangle_14" data-name="Rectangle 14" width="295.989" height="123.507" fill="none"/>
    </clipPath>
  </defs>
  <g id="Group_2" data-name="Group 2" clip-path="url(#clip-path)">
    <path id="Path_1" data-name="Path 1" d="M287.938,80.867q.138-.279.266-.564t.266-.565q.138-.279.266-.564t.266-.564q.138-.279.266-.564t.266-.565q.138-.279.266-.564t.266-.564q.138-.279.266-.564t.266-.565q.138-.279.266-.564t.266-.564q.138-.279.266-.564t.266-.565q.138-.279.266-.564t.266-.564q.138-.279.266-.564t.266-.565q.138-.279.266-.564t.266-.564q.138-.279.266-.564t.266-.565q.138-.279.266-.564a20.368,20.368,0,0,0,1.934-9.115c0-6.967-2.607-11.579-7.75-13.722L289.3,42.9V31.346l-1.322.162V24.194l.258-.031.266-.564.266-.564.266-.565.266-.564V10.351l-34.3,4.191-.266.565-.266.564-.266.564-.266.564-.266.565-.266.564v.532l-.206.025c-2.768-2.167-6.8-2.893-12.327-2.217l-23.739,2.9-.266.565-.266.564-.266.564-.266.564-.266.565-.266.564-.266.564-.266.564-.266.565-.266.564-.266.564-.266.564-.266.565-.266.564-.266.564-.266.564-.266.565-.266.564-.266.564-.266.564-.266.565-.266.564v.293l-5.839.714a11.754,11.754,0,0,0,.15-1.885c0-3.752-2.041-7.062-5.078-8.239l-.039-.014c-1.85-.676-3.986-.766-7.619-.322l-25.489,3.115-3.99,8.467v.246l-3.5-7.8L143.264,28.2l-5.977,12.728-.36.044c-.577-3.49-1.94-6.053-4.129-7.768-2.768-2.168-6.8-2.894-12.328-2.219l-2.644.323-.176-.391.492-.06L104.285,0,87.668,2.031,81.323,15.574l-.04,0-.043.107a11.459,11.459,0,0,0,.335-2.779c0-3.752-2.041-7.062-5.079-8.239l-.038-.014c-1.85-.676-3.986-.766-7.619-.322L43.351,7.446,42.287,9.7v.171q-3.212-1.9-8.866-1.216L8.4,11.717,1.75,25.829V58.377L6.1,57.845c-.06.126-.117.253-.174.381q-.138.279-.266.565t-.266.564q-.138.279-.266.564t-.266.564q-.138.279-.266.565t-.266.564q-.138.279-.266.564t-.266.564q-.138.279-.266.565t-.266.564q-.138.279-.266.564T2.737,65q-.138.279-.266.565t-.266.564A20.368,20.368,0,0,0,.272,75.244c0,6,1.924,10.247,5.723,12.682q-.069.145-.134.293c-.095.185-.182.374-.266.564s-.182.374-.266.565-.182.374-.266.564-.182.374-.266.564-.182.374-.266.564-.182.374-.266.565-.182.374-.266.564-.182.374-.266.564-.182.374-.266.564-.182.374-.266.565-.182.374-.266.564-.182.374-.266.564-.182.374-.266.564-.182.374-.266.565-.182.374-.266.564-.182.374-.266.564a11.327,11.327,0,0,0-1.217,5.225,9.2,9.2,0,0,0,1.473,5.293l-.266.21L0,111.364v2.394c0,3.261,1.253,7.483,7.222,9.076,4.07,1.086,9.29.631,12.862.195,2.586-.316,7.9-.966,12.435-3.222l-.311.768L49.166,118.5l.195-.556.072-.009.195-.556.071-.009.195-.556.072-.009.194-.556.072-.009.195-.556.071-.009.193-.552,7.727-.944,1.166,3.046,16.958-2.072-.227-.5.492-.06-.226-.5.492-.06-.111-.247.073.028c4.067,1.489,8.666,1.2,13.03.667,2.721-.333,8.384-1.024,13.032-3.867a16.549,16.549,0,0,0,6.65-7.4l7.9-.965v7.891L133.4,108.21l.266-.564.266-.564.266-.565.266-.564.266-.564.266-.564.266-.565.266-.564.266-.564.266-.564.266-.565.266-.564.266-.564.266-.564v-.444l11.5-1.406-3.36,8.3,16.958-2.072,1.523-3.375,7.727-.944,1.166,3.046,16.958-2.072-.227-.5.358-.36c3.418,1.067,7.687.881,11.915.364,6.965-.851,14.045-2.626,17.239-8.481v5.4l32.742-4,1.064-2.258v-.5a13.5,13.5,0,0,0,2.251,1.062c4.068,1.489,8.666,1.2,13.03.667,2.721-.333,8.383-1.024,13.032-3.867a16.547,16.547,0,0,0,6.668-7.439q.138-.279.266-.564"/>
    <path id="Path_2" data-name="Path 2" d="M25.053,28.2l22.628-2.765c7.776-.95,10.653,2.2,10.653,8.379,0,5.327-2.8,9.79-10.575,10.74L36.017,45.989v8.631l-10.964,1.34ZM36.017,39.224l7.076-.865c2.8-.342,3.81-1.321,3.81-3.343,0-2.139-1.011-2.831-3.81-2.489l-7.076.865Z" transform="translate(-14.26 -14.382)" fill="#fee440"/>
    <path id="Path_3" data-name="Path 3" d="M106.181,18.1l23.095-2.822c3.149-.385,5.054-.346,6.571.208a6.576,6.576,0,0,1,3.771,6.265,6.971,6.971,0,0,1-4.277,6.86v.078c1.672.262,2.955,1.466,3.149,3.892l.467,6.008a5.292,5.292,0,0,0,1.361,3.1l-11.975,1.463c-.428-.764-.389-1.974-.583-5.178-.117-2.046-.817-3.2-2.839-2.958l-7.776.95v8.554l-10.964,1.34Zm10.964,10.868,7.776-.95c2.177-.266,3.033-1.226,3.033-2.975,0-2.139-1.361-2.439-3.188-2.216l-7.621.931Z" transform="translate(-60.436 -8.549)" fill="#fee440"/>
    <path id="Path_4" data-name="Path 4" d="M191.547,7.648,205,6l11.82,26.316-11.664,1.426L203.988,30.7l-11.431,1.4-1.166,3.331-11.664,1.425Zm6.765,7.571-.078.009-3.266,9.808,6.61-.808Z" transform="translate(-102.297 -3.417)" fill="#fee440"/>
    <path id="Path_5" data-name="Path 5" d="M58.831,116.576c-.739,3.784-1.905,6.843-4.666,9.2-2.683,2.35-6.881,3.99-13.569,4.808-6.648.813-18.973,1.891-18.973-12.534,0-14.386,12.325-16.358,18.973-17.17,6.571-.8,16.835-1.241,18.235,9.63l-12.364,1.511c-.311-1.945-1.633-4.661-5.871-4.143-4.51.551-7.309,3.11-7.309,8.747s2.721,7.521,6.765,7.027c3.46-.423,5.521-2.074,6.415-5.566Z" transform="translate(-12.307 -57.212)" fill="#fff"/>
    <path id="Path_6" data-name="Path 6" d="M111.6,92.643,122.56,91.3v16.8c0,3.578,2.061,4.453,5.638,4.016s5.638-1.817,5.638-5.394v-16.8l10.964-1.34V105.81c0,8.826-5.326,12.159-16.6,13.537s-16.6-.654-16.6-9.48Z" transform="translate(-63.518 -50.421)" fill="#fff"/>
    <path id="Path_7" data-name="Path 7" d="M195.973,85.923l10.964-1.34v27.76l-10.964,1.34Z" transform="translate(-111.544 -48.143)" fill="#fff"/>
    <path id="Path_8" data-name="Path 8" d="M230.085,79.776l21.345-2.608c9.409-1.15,14.386,1.9,14.386,12.122,0,9.759-4.938,14.484-14.152,15.609l-21.578,2.637ZM241.049,99.2l6.3-.77c5.016-.613,7.037-3.348,7.037-7.742s-2.022-6.635-7.037-6.022l-6.3.77Z" transform="translate(-130.96 -43.792)" fill="#fff"/>
    <path id="Path_9" data-name="Path 9" d="M320.6,68.385l13.452-1.644,11.82,26.316L334.2,94.482l-1.166-3.045-11.431,1.4-1.166,3.331-11.664,1.425Zm6.765,7.571-.078.009-3.266,9.808,6.609-.808Z" transform="translate(-175.749 -37.988)" fill="#fff"/>
    <path id="Path_10" data-name="Path 10" d="M394.056,59.424,417.151,56.6c3.15-.385,5.055-.346,6.571.208a6.576,6.576,0,0,1,3.771,6.265,6.97,6.97,0,0,1-4.277,6.86v.078c1.672.262,2.955,1.466,3.149,3.892l.467,6.008a5.289,5.289,0,0,0,1.361,3.1l-11.975,1.464c-.428-.764-.389-1.974-.583-5.178-.117-2.046-.816-3.205-2.838-2.958l-7.776.95v8.554l-10.964,1.34ZM405.02,70.292l7.776-.95c2.177-.266,3.033-1.226,3.033-2.975,0-2.139-1.361-2.439-3.188-2.216l-7.62.931Z" transform="translate(-224.289 -32.072)" fill="#fff"/>
    <path id="Path_11" data-name="Path 11" d="M509.566,45.624l21.345-2.608c9.409-1.15,14.386,1.9,14.386,12.122,0,9.759-4.938,14.484-14.152,15.609l-21.578,2.637ZM520.53,65.047l6.3-.77c5.016-.613,7.037-3.348,7.037-7.742s-2.021-6.635-7.037-6.022l-6.3.769Z" transform="translate(-290.035 -24.354)" fill="#fff"/>
    <path id="Path_12" data-name="Path 12" d="M597.464,33.868l29.51-3.606v6.765l-18.546,2.266v3.733l17.224-2.1v6.765l-17.224,2.1v3.732l18.546-2.266v6.765l-29.51,3.606Z" transform="translate(-340.065 -17.224)" fill="#fff"/>
    <path id="Path_13" data-name="Path 13" d="M28.962,196.091c-5.4-.156-7.582-3-7.582-6.889,0-7.193,7.037-10,16.058-11.1,12.364-1.511,17.418,1.1,17.846,6.917l-12.753,1.558a1.957,1.957,0,0,0-1.672-2.012,8.447,8.447,0,0,0-3.422-.165c-3.266.4-4.394,1.314-4.394,2.52,0,.778.35,1.24,1.439,1.263l13.1.343c5.56.137,8.943,2.29,8.943,6.994,0,6.8-5.521,10.628-17.846,12.134-8.4,1.026-17.69,1-17.69-7.17l13.219-1.615a1.95,1.95,0,0,0,1.167,1.84,8.755,8.755,0,0,0,3.732.127c3.422-.418,4.355-1.426,4.355-2.787,0-.817-.467-1.537-1.983-1.624Z" transform="translate(-11.948 -101.133)" fill="#fc4242"/>
    <path id="Path_14" data-name="Path 14" d="M110.42,159.3l13.452-1.644,11.82,26.316L124.028,185.4l-1.167-3.045-11.431,1.4-1.166,3.331L98.6,188.507Zm18.04-10.175c-.933,4.429-3.227,6.459-5.871,6.782-2.061.252-9.448-.712-11.119-.508a1.885,1.885,0,0,0-1.555,1.318l-4.16.508c1.322-5.1,4.043-6.52,6.337-6.8a46.527,46.527,0,0,1,5.521.258,45.331,45.331,0,0,0,5.054.316,1.888,1.888,0,0,0,1.672-1.37Zm-11.275,17.746-.078.009-3.266,9.808,6.61-.808Z" transform="translate(-56.121 -84.881)" fill="#fc4242"/>
    <path id="Path_15" data-name="Path 15" d="M199.423,157.918c6.648-.812,18.973-1.852,18.973,12.534s-12.325,16.358-18.973,17.171-18.973,1.891-18.973-12.533c0-14.386,12.325-16.359,18.973-17.171m0,22.706c4.51-.551,7.309-3.109,7.309-8.746s-2.8-7.512-7.309-6.961-7.309,3.109-7.309,8.747,2.8,7.511,7.309,6.96" transform="translate(-102.709 -89.652)" fill="#fc4242"/>
    <path id="Path_16" data-name="Path 16" d="M294.066,148.338l22.628-2.765c7.776-.95,10.653,2.2,10.653,8.379,0,5.327-2.8,9.79-10.575,10.74l-11.742,1.435v8.631l-10.964,1.34Zm10.964,11.024,7.076-.865c2.8-.342,3.81-1.321,3.81-3.343,0-2.138-1.011-2.831-3.81-2.489l-7.076.865Z" transform="translate(-167.377 -82.762)" fill="#fc4242"/>
    <path id="Path_17" data-name="Path 17" d="M372.846,138.505l13.452-1.644,11.82,26.316L386.453,164.6l-1.166-3.045-11.431,1.4-1.166,3.331-11.664,1.425Zm6.765,7.571-.078.009-3.266,9.808,6.61-.808Z" transform="translate(-205.489 -77.899)" fill="#fc4242"/>
    <path id="Path_18" data-name="Path 18" d="M444.951,128.413l10.964-1.34v16.8c0,3.578,2.061,4.453,5.637,4.016s5.638-1.817,5.638-5.394V125.7l10.964-1.34V141.58c0,8.826-5.327,12.159-16.6,13.537s-16.6-.654-16.6-9.48Z" transform="translate(-253.257 -70.781)" fill="#fc4242"/>
    <path id="Path_19" data-name="Path 19" d="M529.057,121.726l10.964-1.34v20.3l16.99-2.076v7.465l-27.955,3.416Z" transform="translate(-301.129 -68.521)" fill="#fc4242"/>
    <path id="Path_20" data-name="Path 20" d="M612.375,107.456c6.648-.812,18.973-1.852,18.973,12.534s-12.325,16.358-18.973,17.171S593.4,139.052,593.4,124.628c0-14.386,12.324-16.359,18.973-17.171m0,22.706c4.51-.551,7.309-3.109,7.309-8.746s-2.8-7.512-7.309-6.961-7.309,3.109-7.309,8.747,2.8,7.511,7.309,6.96" transform="translate(-337.753 -60.93)" fill="#fc4242"/>
  </g>
</svg>
