<svg width="210" height="211" viewBox="0 0 210 211" fill="none" xmlns="http://www.w3.org/2000/svg">
<circle cx="105" cy="105.46" r="105" fill="#0885F7"/>
<g transform="translate(10, 10)">
<g clip-path="url(#clip0_270_1597)">
<path d="M189.235 95.383C189.235 82.9578 186.787 70.6542 182.032 59.1747C177.277 47.6953 170.308 37.2648 161.522 28.4788C152.736 19.6928 142.305 12.7233 130.826 7.9684C119.346 3.21345 107.043 0.766113 94.6173 0.766113V5.49696C106.421 5.49696 118.11 7.82193 129.015 12.3391C139.921 16.8563 149.83 23.4773 158.177 31.824C166.523 40.1707 173.144 50.0797 177.662 60.9851C182.179 71.8906 184.504 83.579 184.504 95.383H189.235Z" fill="#8AEBC8"/>
<path d="M94.6173 0.766124C82.192 0.766125 69.8883 3.21347 58.4088 7.96841C46.9293 12.7234 36.4988 19.6928 27.7128 28.4788C18.9267 37.2648 11.9573 47.6953 7.20231 59.1747C2.44734 70.6542 -5.22211e-06 82.9578 -4.13585e-06 95.3831L4.73086 95.3831C4.73086 83.5791 7.05584 71.8906 11.5731 60.9852C16.0903 50.0797 22.7113 40.1707 31.058 31.824C39.4047 23.4773 49.3137 16.8564 60.2193 12.3392C71.1248 7.82194 82.8133 5.49698 94.6173 5.49697L94.6173 0.766124Z" fill="#FEE440"/>
<path d="M-6.98708e-06 95.383C-8.07334e-06 107.808 2.44733 120.112 7.20231 131.591C11.9573 143.071 18.9267 153.501 27.7128 162.287C36.4988 171.073 46.9293 178.043 58.4088 182.798C69.8883 187.553 82.192 190 94.6173 190L94.6173 185.269C82.8132 185.269 71.1248 182.944 60.2193 178.427C49.3137 173.91 39.4047 167.289 31.058 158.942C22.7113 150.595 16.0903 140.686 11.573 129.781C7.05584 118.875 4.73086 107.187 4.73086 95.383L-6.98708e-06 95.383Z" fill="#F6A7A0"/>
<path d="M94.6173 190C107.043 190 119.346 187.553 130.826 182.798C142.305 178.043 152.736 171.073 161.522 162.287C170.308 153.501 177.277 143.071 182.032 131.591C186.787 120.112 189.235 107.808 189.235 95.383L184.504 95.383C184.504 107.187 182.179 118.875 177.662 129.781C173.144 140.686 166.523 150.595 158.177 158.942C149.83 167.289 139.921 173.91 129.015 178.427C118.11 182.944 106.421 185.269 94.6173 185.269L94.6173 190Z" fill="#8CC7FB"/>
<path d="M94.5 177C139.511 177 176 140.511 176 95.5C176 50.4888 139.511 14 94.5 14C49.4888 14 13 50.4888 13 95.5C13 140.511 49.4888 177 94.5 177Z" stroke="#FDFDFD"/>
<g clip-path="url(#clip1_270_1597)">
<mask id="mask0_270_1597" style="mask-type:luminance" maskUnits="userSpaceOnUse" x="49" y="49" width="92" height="92">
<path d="M141 49H49V141H141V49Z" fill="white"/>
</mask>
<g mask="url(#mask0_270_1597)">
<path d="M95.3323 98.4257C89.0177 98.4257 84.2659 89.1878 84.2659 83.1951C84.2659 80.2601 85.4318 77.4453 87.5072 75.37C89.5825 73.2946 92.3973 72.1287 95.3323 72.1287C98.2673 72.1287 101.082 73.2946 103.157 75.37C105.233 77.4453 106.399 80.2601 106.399 83.1951C106.399 89.1889 101.647 98.4257 95.3323 98.4257ZM95.3323 74.8507C93.1202 74.8538 90.9995 75.7339 89.4353 77.2981C87.8711 78.8623 86.991 80.983 86.9879 83.1951C86.9879 87.9101 90.891 95.7094 95.3323 95.7094C99.7736 95.7094 103.677 87.909 103.677 83.1951C103.675 80.9827 102.795 78.8615 101.23 77.2971C99.6659 75.7327 97.5447 74.8528 95.3323 74.8507Z" fill="#171717"/>
<path d="M115.295 115.148H74.6979C74.3371 115.148 73.9913 115.004 73.7362 114.749C73.4811 114.494 73.3377 114.148 73.3374 113.787V104.817C73.3372 104.519 73.4352 104.229 73.6162 103.992C73.7972 103.755 74.0512 103.584 74.3391 103.505L90.2286 99.1353L90.2183 95.6462C90.217 95.2853 90.3592 94.9387 90.6134 94.6825C90.8676 94.4263 91.2132 94.2816 91.5741 94.28C91.9348 94.2797 92.281 94.4223 92.5368 94.6767C92.7927 94.931 92.9373 95.2763 92.9392 95.637L92.9495 100.171C92.9499 100.47 92.8521 100.761 92.6711 100.999C92.4901 101.237 92.236 101.409 91.9479 101.488L76.0583 105.858V112.427H113.935V105.786L98.6397 101.317C98.3585 101.235 98.1112 101.065 97.9346 100.832C97.7581 100.598 97.6617 100.314 97.6599 100.021L97.6266 95.752C97.6253 95.5736 97.6593 95.3967 97.7265 95.2315C97.7938 95.0662 97.8929 94.9159 98.0183 94.789C98.1437 94.6621 98.2929 94.5612 98.4573 94.492C98.6218 94.4228 98.7983 94.3867 98.9767 94.3858H98.987C99.3461 94.3855 99.6908 94.5273 99.9457 94.7803C100.201 95.0333 100.345 95.3768 100.347 95.7359L100.369 98.9916L115.677 103.457C115.96 103.539 116.208 103.711 116.385 103.947C116.562 104.182 116.657 104.469 116.657 104.763V113.783C116.656 114.144 116.513 114.489 116.258 114.745C116.003 115 115.657 115.143 115.296 115.143" fill="#171717"/>
<path d="M131.495 88.8509C131.182 88.8502 130.878 88.7416 130.635 88.5433C130.392 88.3449 130.225 88.069 130.161 87.7618C128.761 80.9024 125.381 74.6037 120.44 69.6447C115.498 64.6856 109.211 61.2836 102.357 59.8594C102.004 59.7857 101.694 59.5748 101.497 59.2731C101.299 58.9714 101.23 58.6036 101.303 58.2505C101.377 57.8975 101.588 57.5882 101.889 57.3906C102.191 57.1931 102.559 57.1235 102.912 57.1971C110.287 58.7278 117.051 62.3867 122.369 67.7214C127.686 73.056 131.323 79.8323 132.829 87.2121C132.866 87.3876 132.868 87.5686 132.834 87.7447C132.801 87.9208 132.733 88.0885 132.634 88.2382C132.535 88.3879 132.408 88.5165 132.259 88.6168C132.111 88.717 131.944 88.7868 131.768 88.8221C131.678 88.8394 131.587 88.8498 131.495 88.8509Z" fill="#171717"/>
<path d="M58.4715 89.0085C58.3817 89.0101 58.2922 89.0009 58.2047 88.9809C58.0292 88.9464 57.8623 88.8776 57.7135 88.7783C57.5648 88.6791 57.4371 88.5514 57.3379 88.4026C57.2388 88.2538 57.17 88.0869 57.1356 87.9114C57.1012 87.7359 57.1018 87.5553 57.1375 87.3801C58.6225 79.8611 62.3223 72.9579 67.7613 67.558C73.2004 62.1582 80.13 58.5083 87.6596 57.0776C88.014 57.0096 88.3809 57.0852 88.6796 57.2877C88.9783 57.4902 89.1844 57.8031 89.2524 58.1575C89.3204 58.5119 89.2448 58.8788 89.0423 59.1775C88.8398 59.4762 88.5269 59.6822 88.1725 59.7502C81.1743 61.08 74.7338 64.4724 69.6788 69.4914C64.6238 74.5103 61.1853 80.9264 59.8055 87.9149C59.7438 88.2233 59.5772 88.5008 59.334 88.7001C59.0907 88.8995 58.786 89.0085 58.4715 89.0085Z" fill="#171717"/>
<path d="M87.939 132.948C87.8536 132.946 87.7683 132.938 87.6837 132.926C80.1474 131.499 73.2105 127.85 67.7658 122.448C62.3211 117.045 58.6179 110.137 57.1329 102.612C57.0618 102.258 57.1342 101.89 57.3341 101.59C57.534 101.29 57.8451 101.081 58.1989 101.01C58.5527 100.939 58.9202 101.011 59.2207 101.211C59.5211 101.411 59.7298 101.722 59.8009 102.076C61.2392 109.044 64.7005 115.434 69.7516 120.445C74.8027 125.457 81.2194 128.867 88.1989 130.251C88.5313 130.314 88.828 130.5 89.0311 130.77C89.2342 131.041 89.329 131.377 89.2971 131.714C89.2652 132.051 89.1088 132.364 88.8585 132.592C88.6082 132.819 88.282 132.945 87.9437 132.945" fill="#171717"/>
<path d="M102.639 132.834C102.303 132.835 101.977 132.711 101.727 132.486C101.476 132.26 101.318 131.95 101.284 131.615C101.249 131.28 101.34 130.944 101.54 130.672C101.739 130.4 102.032 130.213 102.362 130.145C109.246 128.718 115.557 125.295 120.507 120.304C125.458 115.313 128.829 108.974 130.2 102.079C130.271 101.726 130.479 101.416 130.779 101.216C130.927 101.117 131.094 101.049 131.269 101.014C131.443 100.98 131.623 100.98 131.798 101.015C131.973 101.05 132.139 101.119 132.287 101.218C132.435 101.318 132.563 101.445 132.661 101.594C132.76 101.742 132.829 101.908 132.863 102.083C132.898 102.258 132.898 102.438 132.863 102.613C131.388 110.03 127.762 116.849 122.436 122.219C117.111 127.589 110.323 131.271 102.918 132.807C102.826 132.825 102.734 132.834 102.641 132.835" fill="#171717"/>
<path d="M132.258 103.745C130.529 103.745 128.839 103.232 127.402 102.272C125.965 101.311 124.845 99.9463 124.183 98.3493C123.521 96.7523 123.348 94.995 123.686 93.2996C124.023 91.6042 124.855 90.0468 126.078 88.8245C127.3 87.6022 128.857 86.7698 130.553 86.4326C132.248 86.0954 134.005 86.2684 135.602 86.9299C137.199 87.5915 138.564 88.7117 139.525 90.149C140.485 91.5863 140.998 93.276 140.998 95.0047C140.994 97.3216 140.072 99.5427 138.434 101.181C136.796 102.819 134.575 103.741 132.258 103.745ZM132.258 88.9764C131.067 88.9768 129.902 89.3304 128.912 89.9925C127.922 90.6546 127.15 91.5954 126.694 92.6959C126.239 93.7965 126.12 95.0075 126.352 96.1758C126.585 97.3441 127.158 98.4172 128.001 99.2594C128.843 100.102 129.916 100.675 131.084 100.908C132.253 101.14 133.464 101.021 134.564 100.566C135.665 100.11 136.606 99.3383 137.268 98.3481C137.93 97.3578 138.283 96.1935 138.284 95.0024C138.282 93.4046 137.647 91.8728 136.517 90.743C135.387 89.6132 133.855 88.9779 132.258 88.9764Z" fill="#171717"/>
<path d="M57.74 103.745C56.0114 103.745 54.3216 103.232 52.8843 102.272C51.447 101.311 50.3268 99.9463 49.6653 98.3493C49.0038 96.7523 48.8307 94.995 49.1679 93.2996C49.5052 91.6042 50.3376 90.0468 51.5599 88.8245C52.7822 87.6022 54.3395 86.7698 56.0349 86.4326C57.7303 86.0954 59.4876 86.2684 61.0847 86.9299C62.6817 87.5915 64.0467 88.7117 65.007 90.149C65.9674 91.5863 66.48 93.276 66.48 95.0047C66.4767 97.3216 65.5548 99.5427 63.9164 101.181C62.2781 102.819 60.057 103.741 57.74 103.745ZM57.74 88.9764C56.5488 88.9768 55.3845 89.3304 54.3943 89.9925C53.404 90.6546 52.6323 91.5954 52.1767 92.6959C51.7211 93.7965 51.602 95.0075 51.8345 96.1758C52.067 97.3441 52.6406 98.4172 53.4829 99.2594C54.3252 100.102 55.3983 100.675 56.5666 100.908C57.7348 101.14 58.9458 101.021 60.0464 100.566C61.147 100.11 62.0878 99.3383 62.7499 98.3481C63.4119 97.3578 63.7655 96.1935 63.766 95.0024C63.7645 93.4046 63.1291 91.8728 61.9993 90.743C60.8696 89.6132 59.3377 88.9779 57.74 88.9764Z" fill="#171717"/>
<path d="M95.2955 66.489C93.5674 66.489 91.878 65.9767 90.4409 65.0168C89.0039 64.0569 87.8836 62.6925 87.2218 61.0961C86.56 59.4997 86.3863 57.7429 86.7227 56.0478C87.0591 54.3526 87.8905 52.7953 89.1118 51.5726C90.3331 50.3499 91.8894 49.5166 93.5841 49.1782C95.2788 48.8398 97.0358 49.0114 98.633 49.6714C100.23 50.3313 101.596 51.4499 102.558 52.8858C103.519 54.3217 104.033 56.0105 104.036 57.7387C104.034 60.057 103.113 62.28 101.474 63.92C99.836 65.56 97.6138 66.4831 95.2955 66.4867M95.2955 51.7184C94.1042 51.7191 92.9397 52.0731 91.9495 52.7355C90.9593 53.398 90.1878 54.3392 89.7325 55.4402C89.2772 56.5411 89.1586 57.7523 89.3917 58.9207C89.6248 60.089 90.1991 61.162 91.042 62.004C91.8849 62.8459 92.9586 63.419 94.1272 63.6508C95.2958 63.8825 96.5069 63.7625 97.6073 63.306C98.7078 62.8494 99.6481 62.0768 100.309 61.0859C100.971 60.0949 101.323 58.9301 101.323 57.7387C101.319 56.1421 100.683 54.6119 99.5531 53.4838C98.4233 52.3557 96.8922 51.7216 95.2955 51.7207" fill="#171717"/>
<path d="M95.2955 141.003C93.5673 141.003 91.8778 140.491 90.4407 139.531C89.0036 138.571 87.8834 137.207 87.2216 135.61C86.5599 134.013 86.3863 132.256 86.7229 130.561C87.0595 128.866 87.8911 127.309 89.1126 126.086C90.3341 124.864 91.8907 124.031 93.5855 123.692C95.2804 123.354 97.0375 123.526 98.6346 124.186C100.232 124.847 101.597 125.966 102.559 127.402C103.52 128.838 104.034 130.527 104.036 132.255C104.034 134.574 103.113 136.797 101.474 138.437C99.836 140.077 97.6138 141 95.2955 141.003ZM95.2955 126.235C94.1041 126.236 92.9396 126.589 91.9492 127.252C90.9589 127.914 90.1871 128.855 89.7317 129.956C89.2762 131.057 89.1575 132.268 89.3904 133.437C89.6234 134.605 90.1976 135.678 91.0405 136.52C91.8833 137.362 92.957 137.936 94.1256 138.167C95.2943 138.399 96.5054 138.279 97.6059 137.823C98.7064 137.366 99.6468 136.594 100.308 135.603C100.97 134.612 101.322 133.447 101.322 132.255C101.319 130.659 100.683 129.128 99.5532 127.999C98.4235 126.871 96.8924 126.236 95.2955 126.235Z" fill="#171717"/>
</g>
</g>
</g>
<defs>
<clipPath id="clip0_270_1597">
<rect width="190" height="190" fill="white"/>
</clipPath>
<clipPath id="clip1_270_1597">
<rect width="92" height="92" fill="white" transform="translate(49 49)"/>
</clipPath>
</defs>
</g>
</svg>
