<svg width="210" height="211" viewBox="0 0 210 211" fill="none" xmlns="http://www.w3.org/2000/svg">
<ellipse cx="105" cy="105.461" rx="105" ry="105.461" fill="#FC4242"/>
<g transform="translate(10, 10)">
<g clip-path="url(#clip0_270_1621)">
<path d="M189.235 95.383C189.235 82.9578 186.787 70.6542 182.032 59.1747C177.277 47.6953 170.308 37.2648 161.522 28.4788C152.736 19.6928 142.305 12.7233 130.826 7.9684C119.346 3.21345 107.043 0.766113 94.6173 0.766113V5.49696C106.421 5.49696 118.11 7.82193 129.015 12.3391C139.921 16.8563 149.83 23.4773 158.177 31.824C166.523 40.1707 173.144 50.0797 177.662 60.9851C182.179 71.8906 184.504 83.579 184.504 95.383H189.235Z" fill="#8AEBC8"/>
<path d="M94.6173 0.766124C82.192 0.766125 69.8883 3.21347 58.4088 7.96841C46.9293 12.7234 36.4988 19.6928 27.7128 28.4788C18.9267 37.2648 11.9573 47.6953 7.20231 59.1747C2.44734 70.6542 -5.22211e-06 82.9578 -4.13585e-06 95.3831L4.73086 95.3831C4.73086 83.5791 7.05584 71.8906 11.5731 60.9852C16.0903 50.0797 22.7113 40.1707 31.058 31.824C39.4047 23.4773 49.3137 16.8564 60.2193 12.3392C71.1248 7.82194 82.8133 5.49698 94.6173 5.49697L94.6173 0.766124Z" fill="#FEE440"/>
<path d="M-6.98708e-06 95.383C-8.07334e-06 107.808 2.44733 120.112 7.20231 131.591C11.9573 143.071 18.9267 153.501 27.7128 162.287C36.4988 171.073 46.9293 178.043 58.4088 182.798C69.8883 187.553 82.192 190 94.6173 190L94.6173 185.269C82.8132 185.269 71.1248 182.944 60.2193 178.427C49.3137 173.91 39.4047 167.289 31.058 158.942C22.7113 150.595 16.0903 140.686 11.573 129.781C7.05584 118.875 4.73086 107.187 4.73086 95.383L-6.98708e-06 95.383Z" fill="#F6A7A0"/>
<path d="M94.6173 190C107.043 190 119.346 187.553 130.826 182.798C142.305 178.043 152.736 171.073 161.522 162.287C170.308 153.501 177.277 143.071 182.032 131.591C186.787 120.112 189.235 107.808 189.235 95.383L184.504 95.383C184.504 107.187 182.179 118.875 177.662 129.781C173.144 140.686 166.523 150.595 158.177 158.942C149.83 167.289 139.921 173.91 129.015 178.427C118.11 182.944 106.421 185.269 94.6173 185.269L94.6173 190Z" fill="#8CC7FB"/>
<path d="M94.5 177C139.511 177 176 140.511 176 95.5C176 50.4888 139.511 14 94.5 14C49.4888 14 13 50.4888 13 95.5C13 140.511 49.4888 177 94.5 177Z" stroke="#FDFDFD"/>
<path d="M127.353 122.814C127.038 122.812 126.737 122.688 126.513 122.468L114.366 110.598H110.51C110.191 110.598 109.885 110.472 109.659 110.247C109.434 110.022 109.307 109.717 109.307 109.399C109.307 109.081 109.434 108.776 109.659 108.551C109.885 108.326 110.191 108.2 110.51 108.2H114.854C115.167 108.197 115.469 108.317 115.694 108.535L126.144 118.743V108.033C126.144 107.746 126.247 107.47 126.433 107.253C126.62 107.035 126.878 106.891 127.161 106.846C131.25 106.212 133.237 103.737 133.237 99.2821V77.8502C133.237 73.5595 131.418 71.7288 127.156 71.7288H97.0227C92.5426 71.7288 87.787 73.8724 87.787 77.8502V99.2854C87.787 103.452 92.7105 108.2 97.0227 108.2H103.424C103.743 108.2 104.049 108.326 104.275 108.551C104.5 108.776 104.627 109.081 104.627 109.399C104.627 109.717 104.5 110.022 104.275 110.247C104.049 110.472 103.743 110.598 103.424 110.598H97.0227C91.3621 110.598 85.3723 104.783 85.3723 99.2854V77.8502C85.3723 72.2525 91.2311 69.3257 97.0227 69.3257H127.16C132.714 69.3257 135.651 72.276 135.651 77.8502V99.2854C135.651 104.585 133.201 107.93 128.558 109.027V121.613C128.558 121.848 128.488 122.079 128.357 122.275C128.225 122.472 128.039 122.625 127.821 122.717C127.674 122.782 127.514 122.816 127.353 122.814Z" fill="#171717"/>
<path d="M87.3739 93.922H80.9761C75.3154 93.922 69.3257 88.106 69.3257 82.6064V61.4947C69.3257 55.8484 75.3675 53.2791 80.9761 53.2791H111.118C116.75 53.2791 119.605 56.0429 119.605 61.4947V69.2521C119.605 69.5659 119.478 69.8669 119.252 70.0888C119.026 70.3107 118.719 70.4354 118.399 70.4354C118.079 70.4354 117.773 70.3107 117.547 70.0888C117.32 69.8669 117.193 69.5659 117.193 69.2521V61.4947C117.193 57.3399 115.434 55.6407 111.118 55.6407H80.9761C77.2633 55.6407 71.7404 57.2031 71.7404 61.4947V82.6146C71.7404 86.7974 76.6639 91.5636 80.9761 91.5636H87.3756C87.6953 91.5636 88.002 91.6883 88.2281 91.9102C88.4542 92.1321 88.5812 92.4331 88.5812 92.7469C88.5812 93.0607 88.4542 93.3617 88.2281 93.5836C88.002 93.8055 87.6953 93.9302 87.3756 93.9302" fill="#171717"/>
<path d="M111.523 106.767C111.219 106.769 110.925 106.647 110.705 106.427L98.8686 94.5294H95.1052C94.7937 94.5294 94.4948 94.4007 94.2745 94.1716C94.0542 93.9425 93.9304 93.6317 93.9304 93.3077C93.9304 92.9837 94.0542 92.6729 94.2745 92.4438C94.4948 92.2147 94.7937 92.0859 95.1052 92.0859H99.3382C99.6433 92.0834 99.9371 92.2056 100.156 92.4263L110.344 102.663V91.7422C110.344 91.4506 110.445 91.1688 110.628 90.9476C110.81 90.7264 111.063 90.5804 111.34 90.5358C115.319 89.8909 117.255 87.3742 117.255 82.8445V78.0357C117.255 77.7117 117.379 77.4009 117.599 77.1718C117.82 76.9427 118.118 76.814 118.43 76.814C118.742 76.814 119.04 76.9427 119.261 77.1718C119.481 77.4009 119.605 77.7117 119.605 78.0357V82.8445C119.605 88.2335 117.218 91.635 112.693 92.7496V105.547C112.693 105.787 112.626 106.021 112.499 106.22C112.372 106.42 112.192 106.576 111.98 106.67C111.834 106.733 111.678 106.766 111.52 106.767" fill="#171717"/>
<path d="M63.7171 136.716C63.5474 136.717 63.3796 136.681 63.2251 136.611C63.0123 136.517 62.8316 136.364 62.7049 136.17C62.5782 135.976 62.511 135.749 62.5115 135.518V122.972C57.8686 121.879 55.4187 118.545 55.4187 113.258V91.8818C55.4187 86.6302 59.2959 83.2327 65.2989 83.2327H80.5608C80.8805 83.2327 81.1872 83.3589 81.4133 83.5836C81.6394 83.8083 81.7664 84.1131 81.7664 84.4308C81.7664 84.7486 81.6394 85.0534 81.4133 85.2781C81.1872 85.5028 80.8805 85.629 80.5608 85.629H65.2989C63.5492 85.629 57.83 86.0795 57.83 91.8818V113.258C57.83 117.701 59.8164 120.169 63.9001 120.801C64.1845 120.845 64.4438 120.988 64.6313 121.205C64.8188 121.422 64.9221 121.698 64.9227 121.984V132.848L76.7994 122.296C77.0214 122.1 77.3085 121.993 77.6054 121.994H95.4347C99.4647 121.994 103.285 117.749 103.285 113.258V91.8818C103.285 87.2677 99.0567 85.629 95.4347 85.629H87.6485C87.3287 85.629 87.0221 85.5028 86.796 85.2781C86.5699 85.0534 86.4428 84.7486 86.4428 84.4308C86.4428 84.1131 86.5699 83.8083 86.796 83.5836C87.0221 83.3589 87.3287 83.2327 87.6485 83.2327H95.4364C101.575 83.2327 105.698 86.712 105.698 91.8818V113.258C105.698 119.081 100.808 124.386 95.4364 124.386H78.0622L64.5231 136.414C64.3015 136.611 64.0146 136.721 63.7171 136.721" fill="#171717"/>
</g>
<defs>
<clipPath id="clip0_270_1621">
<rect width="190" height="190" fill="white"/>
</clipPath>
</defs>
</g>
</svg>
