<svg width="210" height="211" viewBox="0 0 210 211" fill="none" xmlns="http://www.w3.org/2000/svg">
<circle cx="105" cy="105.46" r="105" fill="#FC4242"/>
<g transform="translate(10, 10)">
<g clip-path="url(#clip0_270_1549)">
<path d="M94.5 175C139.511 175 176 138.511 176 93.5C176 48.4888 139.511 12 94.5 12C49.4888 12 13 48.4888 13 93.5C13 138.511 49.4888 175 94.5 175Z" stroke="#FDFDFD"/>
<path d="M189.235 95.383C189.235 82.9578 186.787 70.6542 182.032 59.1747C177.277 47.6953 170.308 37.2648 161.522 28.4788C152.736 19.6928 142.305 12.7233 130.826 7.9684C119.346 3.21345 107.043 0.766113 94.6173 0.766113V5.49696C106.421 5.49696 118.11 7.82193 129.015 12.3391C139.921 16.8563 149.83 23.4773 158.177 31.824C166.523 40.1707 173.144 50.0797 177.662 60.9851C182.179 71.8906 184.504 83.579 184.504 95.383H189.235Z" fill="#8AEBC8"/>
<path d="M94.6173 0.766124C82.192 0.766125 69.8883 3.21347 58.4088 7.96841C46.9293 12.7234 36.4988 19.6928 27.7128 28.4788C18.9267 37.2648 11.9573 47.6953 7.20231 59.1747C2.44734 70.6542 -5.22211e-06 82.9578 -4.13585e-06 95.3831L4.73086 95.3831C4.73086 83.5791 7.05584 71.8906 11.5731 60.9852C16.0903 50.0797 22.7113 40.1707 31.058 31.824C39.4047 23.4773 49.3137 16.8564 60.2193 12.3392C71.1248 7.82194 82.8133 5.49698 94.6173 5.49697L94.6173 0.766124Z" fill="#FEE440"/>
<path d="M-6.98708e-06 95.383C-8.07334e-06 107.808 2.44733 120.112 7.20231 131.591C11.9573 143.071 18.9267 153.501 27.7128 162.287C36.4988 171.073 46.9293 178.043 58.4088 182.798C69.8883 187.553 82.192 190 94.6173 190L94.6173 185.269C82.8132 185.269 71.1248 182.944 60.2193 178.427C49.3137 173.91 39.4047 167.289 31.058 158.942C22.7113 150.595 16.0903 140.686 11.573 129.781C7.05584 118.875 4.73086 107.187 4.73086 95.383L-6.98708e-06 95.383Z" fill="#F6A7A0"/>
<path d="M94.6173 190C107.043 190 119.346 187.553 130.826 182.798C142.305 178.043 152.736 171.073 161.522 162.287C170.308 153.501 177.277 143.071 182.032 131.591C186.787 120.112 189.235 107.808 189.235 95.383L184.504 95.383C184.504 107.187 182.179 118.875 177.662 129.781C173.144 140.686 166.523 150.595 158.177 158.942C149.83 167.289 139.921 173.91 129.015 178.427C118.11 182.944 106.421 185.269 94.6173 185.269L94.6173 190Z" fill="#8CC7FB"/>
<path d="M95 141C85.9021 141 77.0084 138.302 69.4438 133.248C61.8791 128.193 55.9832 121.009 52.5016 112.603C49.0199 104.198 48.109 94.949 49.8839 86.0259C51.6588 77.1027 56.0399 68.9063 62.4731 62.4731C68.9063 56.0399 77.1027 51.6588 86.0259 49.8839C94.949 48.109 104.198 49.0199 112.603 52.5016C121.009 55.9832 128.193 61.8791 133.248 69.4438C138.302 77.0084 141 85.9021 141 95C140.985 107.195 136.133 118.886 127.51 127.51C118.886 136.133 107.195 140.985 95 141ZM95 52.3287C86.5604 52.3286 78.3103 54.8311 71.2929 59.5197C64.2755 64.2084 58.8061 70.8727 55.5763 78.6698C52.3465 86.467 51.5013 95.0468 53.1477 103.324C54.7941 111.602 58.8581 119.205 64.8257 125.173C70.7934 131.141 78.3967 135.205 86.6741 136.851C94.9516 138.498 103.531 137.653 111.329 134.423C119.126 131.194 125.79 125.724 130.479 118.707C135.168 111.69 137.67 103.44 137.67 95C137.658 83.687 133.158 72.841 125.158 64.8413C117.159 56.8417 106.313 52.3418 95 52.3287Z" fill="#212121"/>
<path d="M118.336 95H71.6642C71.4456 95 71.2292 94.9612 71.0273 94.8858C70.8254 94.8104 70.642 94.6999 70.4874 94.5607C70.3329 94.4214 70.2103 94.256 70.1267 94.074C70.043 93.892 70 93.697 70 93.5C70 93.303 70.043 93.108 70.1267 92.926C70.2103 92.744 70.3329 92.5786 70.4874 92.4393C70.642 92.3001 70.8254 92.1896 71.0273 92.1142C71.2292 92.0388 71.4456 92 71.6642 92H118.336C118.777 92 119.2 92.158 119.513 92.4393C119.825 92.7206 120 93.1022 120 93.5C120 93.8978 119.825 94.2794 119.513 94.5607C119.2 94.842 118.777 95 118.336 95Z" fill="#212121"/>
<path d="M94.996 118C94.4659 117.998 93.9582 117.822 93.5841 117.51C93.21 117.198 93 116.776 93 116.336V69.6607C93 69.4426 93.0517 69.2267 93.1522 69.0252C93.2528 68.8237 93.4001 68.6406 93.5858 68.4864C93.7715 68.3322 93.992 68.2099 94.2346 68.1264C94.4773 68.043 94.7374 68 95 68C95.2626 68 95.5227 68.043 95.7654 68.1264C96.008 68.2099 96.2285 68.3322 96.4142 68.4864C96.5999 68.6406 96.7473 68.8237 96.8478 69.0252C96.9483 69.2267 97 69.4426 97 69.6607V116.335C96.9995 116.776 96.7882 117.199 96.4124 117.511C96.0367 117.823 95.5273 117.999 94.996 117.999" fill="#212121"/>
</g>
<defs>
<clipPath id="clip0_270_1549">
<rect width="190" height="190" fill="white"/>
</clipPath>
</defs>
</g>
</svg>
